<svg xmlns="http://www.w3.org/2000/svg" width="1087" height="964" viewBox="0 0 1087 964">
<g>
<path d="M 870.14 502.60 C862.02,505.24 856.55,505.67 855.31,503.75 C854.86,503.06 854.44,495.98 854.37,488.00 C854.30,480.02 853.76,468.10 853.18,461.50 C851.58,443.22 851.67,432.00 853.44,432.00 C855.94,432.00 856.46,434.21 856.64,445.50 C856.86,458.81 858.71,491.21 859.53,495.82 C860.08,498.94 860.31,499.10 863.31,498.49 C874.91,496.17 888.12,492.39 891.68,490.37 C893.98,489.07 896.96,488.00 898.31,488.00 C899.65,488.00 901.32,487.32 902.02,486.48 C902.77,485.57 904.61,485.05 906.61,485.18 C908.43,485.30 910.28,485.05 910.71,484.62 C911.15,484.18 911.46,476.93 911.40,468.49 C911.31,453.37 910.16,446.80 907.71,447.29 C906.47,447.53 902.20,440.35 902.08,437.82 C902.03,436.81 902.89,436.01 904.25,435.82 C906.32,435.53 906.60,434.66 907.81,425.00 C909.14,414.36 909.84,411.89 911.65,411.28 C913.75,410.58 926.41,421.08 928.56,425.31 C932.14,432.34 935.77,437.16 943.43,445.08 C947.46,449.25 952.02,454.65 953.55,457.08 C955.08,459.51 958.39,463.86 960.91,466.74 C966.17,472.74 967.54,473.03 976.56,470.01 C979.83,468.91 986.66,467.15 991.74,466.09 C996.83,465.04 1002.45,463.27 1004.24,462.17 C1006.70,460.65 1019.01,458.00 1023.57,458.00 C1023.81,458.00 1024.00,457.33 1024.00,456.50 C1024.00,455.67 1023.63,455.00 1023.18,455.00 C1021.89,455.00 1013.00,446.16 1012.21,444.10 C1011.82,443.08 1004.09,434.53 995.04,425.12 C985.98,415.70 978.14,407.22 977.61,406.27 C977.08,405.33 972.68,400.68 967.83,395.94 C962.43,390.67 959.00,386.53 959.00,385.28 C959.00,382.17 961.99,375.69 964.11,374.21 C965.15,373.48 966.00,372.09 966.00,371.12 C966.00,370.15 967.63,367.46 969.61,365.14 C971.60,362.82 973.98,359.03 974.91,356.71 C976.99,351.53 979.58,347.03 983.50,341.79 C985.15,339.59 987.25,336.44 988.18,334.79 C989.10,333.14 990.81,330.77 991.98,329.52 C993.15,328.28 995.15,324.28 996.42,320.62 C997.97,316.20 1000.20,312.40 1003.12,309.24 C1008.52,303.39 1011.54,297.86 1010.63,295.49 C1010.04,293.95 1009.06,293.79 1003.23,294.29 C996.36,294.88 990.42,297.13 988.33,299.93 C987.44,301.13 984.39,301.64 975.33,302.11 C959.65,302.92 956.46,304.11 952.85,310.50 C951.29,313.25 949.56,316.62 949.00,318.00 C947.36,322.05 944.85,326.35 942.80,328.62 C941.75,329.79 938.30,335.87 935.13,342.12 C928.47,355.27 924.27,362.87 922.48,365.00 C921.79,365.83 920.22,368.75 919.00,371.50 C916.30,377.58 913.31,381.00 910.69,381.00 C908.42,381.00 906.08,378.33 906.03,375.69 C906.01,374.70 905.63,374.11 905.17,374.40 C904.31,374.93 904.41,379.50 905.48,389.00 C906.03,393.93 905.78,395.05 903.04,399.73 C897.76,408.76 891.63,410.51 888.96,403.76 C886.99,398.79 885.05,396.95 882.45,397.60 C879.68,398.30 878.50,395.50 879.44,390.49 C879.79,388.58 879.62,386.88 879.03,386.52 C878.46,386.17 878.00,384.37 878.00,382.52 C878.00,376.99 874.71,370.74 870.66,368.61 L 867.08 366.73 L 861.29 371.75 C855.18,377.06 852.87,379.01 852.28,381.39 C851.93,382.83 852.20,384.41 852.64,386.98 L 852.69 387.28 C853.83,393.97 852.89,398.19 849.65,400.87 C847.40,402.75 847.58,403.80 850.22,404.18 C851.45,404.36 853.02,405.62 853.71,407.00 C855.23,410.02 855.45,425.00 853.98,425.00 C852.65,425.00 850.98,420.67 850.15,415.03 L 849.48 410.57 L 844.83 410.85 C837.65,411.30 834.35,409.06 830.87,401.37 C828.75,396.69 826.98,394.33 824.52,392.88 C822.42,391.64 820.69,389.59 820.01,387.54 C818.86,384.04 813.03,380.40 812.26,382.71 C811.71,384.38 807.94,388.26 803.68,391.55 C797.70,396.17 793.07,399.88 782.53,408.50 C767.17,421.06 756.72,429.00 755.56,428.98 C753.58,428.96 751.90,427.33 751.87,425.41 C751.71,413.93 749.89,363.48 749.52,360.23 C748.90,354.75 751.09,352.40 757.68,351.46 C760.33,351.08 764.97,350.10 768.00,349.28 C771.03,348.46 775.53,347.36 778.00,346.82 C783.26,345.69 792.60,343.31 799.00,341.47 C810.65,338.12 811.32,338.44 812.00,347.71 C812.40,353.16 812.80,354.40 814.00,354.01 C814.83,353.74 819.78,353.62 825.00,353.75 C830.22,353.87 834.97,353.64 835.55,353.23 C836.13,352.83 837.84,350.86 839.34,348.86 C842.68,344.41 842.54,344.24 831.11,338.00 C826.58,335.52 819.08,330.64 814.44,327.15 C807.10,321.62 806.00,320.40 806.00,317.75 L 806.00 314.71 L 800.69 319.73 C797.77,322.49 794.06,325.41 792.44,326.22 C788.43,328.22 777.18,331.23 776.13,330.58 C775.67,330.29 773.92,330.45 772.25,330.93 C767.85,332.19 757.56,329.78 752.71,326.35 C750.35,324.68 747.46,321.24 745.74,318.03 C743.17,313.27 742.85,311.76 743.19,306.32 C743.76,297.38 745.48,296.07 746.46,303.84 C747.28,310.35 749.80,314.61 757.29,322.09 C760.46,325.26 769.22,327.56 774.42,326.58 C778.59,325.80 784.47,321.45 784.61,319.05 C784.90,314.12 788.63,311.88 789.71,315.99 C790.12,317.57 790.78,317.85 792.86,317.36 C800.76,315.51 808.00,301.31 808.00,287.68 C808.00,284.44 807.28,282.59 804.94,279.75 C803.26,277.71 801.57,276.08 801.19,276.14 C797.62,276.65 793.48,273.80 794.38,271.45 C795.60,268.28 785.02,265.38 782.28,268.12 C781.67,268.73 778.96,269.36 776.27,269.50 C773.58,269.65 769.51,270.72 767.23,271.88 C764.95,273.05 762.40,274.00 761.56,274.00 C760.71,274.00 759.77,275.22 759.43,276.75 C758.12,282.64 757.69,283.59 755.20,286.25 C753.78,287.76 751.90,289.00 751.01,289.00 C750.13,289.00 748.91,289.49 748.31,290.09 C746.27,292.13 745.99,289.29 747.76,284.39 C749.50,279.58 756.47,271.55 758.06,272.54 C758.52,272.82 759.36,272.20 759.91,271.16 C761.38,268.42 770.65,264.34 777.90,263.25 C785.21,262.14 798.23,263.84 802.71,266.49 C806.01,268.44 809.67,273.67 810.54,277.68 C810.88,279.23 811.62,281.46 812.19,282.64 C813.91,286.20 812.78,299.91 810.37,304.75 C808.09,309.32 808.75,310.55 811.35,306.59 C812.22,305.27 815.40,302.97 818.43,301.49 C823.74,298.89 824.22,298.83 831.86,299.86 C836.22,300.45 840.38,301.06 841.12,301.21 C842.95,301.61 844.53,283.93 843.11,279.00 C842.55,277.08 842.24,269.69 842.42,262.58 C842.79,247.60 842.78,247.62 852.10,246.65 C855.46,246.30 860.30,245.32 862.85,244.48 C871.12,241.77 896.40,235.73 900.00,235.61 L 903.50 235.50 L 904.21 242.50 C905.71,257.16 906.92,279.63 906.38,282.66 C905.35,288.38 906.46,289.80 911.99,289.85 C917.97,289.89 921.14,291.44 924.47,295.95 C926.60,298.84 927.00,300.48 927.00,306.22 C927.00,314.91 923.19,323.06 915.41,331.02 C910.42,336.12 910.00,336.92 909.88,341.52 C909.70,347.98 911.46,368.79 912.25,369.58 C913.15,370.49 918.74,363.96 920.03,360.50 C922.07,355.02 924.41,350.53 926.72,347.67 C927.97,346.12 929.00,344.40 929.00,343.85 C929.00,343.30 930.90,339.62 933.22,335.67 C935.54,331.73 939.15,325.12 941.26,321.00 C950.48,302.93 954.32,299.00 962.75,299.00 C964.87,299.00 967.03,298.60 967.55,298.12 C968.07,297.63 973.90,296.03 980.50,294.55 C987.10,293.07 995.88,290.81 1000.00,289.52 C1008.91,286.75 1019.62,284.00 1021.51,284.00 C1024.83,284.00 1023.95,287.96 1018.78,296.29 C1013.05,305.54 1011.37,308.37 1006.20,317.50 C1004.33,320.80 1002.02,324.40 1001.07,325.50 C1000.11,326.60 997.15,331.33 994.49,336.00 C991.83,340.67 987.63,347.65 985.17,351.50 C972.42,371.43 965.00,383.82 965.00,385.20 C965.00,385.73 969.39,390.71 974.75,396.26 C1001.10,423.56 1007.82,430.51 1019.92,442.97 C1027.12,450.38 1033.27,457.26 1033.59,458.27 C1034.39,460.79 1032.28,463.00 1029.09,463.00 C1027.62,463.00 1023.74,463.73 1020.46,464.61 C1017.18,465.50 1012.03,466.80 1009.00,467.49 C1005.97,468.19 996.31,470.61 987.52,472.88 C972.24,476.82 964.68,477.83 962.50,476.23 C961.95,475.83 959.47,472.82 957.00,469.55 C954.52,466.27 950.00,460.87 946.95,457.55 C943.90,454.22 939.28,448.49 936.70,444.82 C934.11,441.14 931.21,437.87 930.25,437.54 C929.29,437.22 925.87,433.59 922.65,429.48 C919.43,425.36 916.34,422.00 915.77,422.00 C914.51,422.00 915.51,452.88 917.45,474.00 L 917.49 474.45 C918.38,484.13 918.74,488.08 916.94,490.12 C915.68,491.55 913.34,492.04 909.37,492.92 C906.14,493.64 899.67,495.29 895.00,496.58 C890.33,497.88 884.47,499.23 882.00,499.57 C879.53,499.92 874.19,501.28 870.14,502.60 ZM 625.09 528.97 C620.28,533.03 616.60,530.54 618.80,524.72 C619.63,522.52 619.63,521.18 618.82,519.66 C618.20,518.51 617.56,513.06 617.39,507.54 C617.21,502.02 616.81,494.80 616.49,491.50 C615.80,484.21 614.92,471.13 614.46,461.00 C614.27,456.88 613.61,444.73 612.99,434.00 C612.37,423.27 611.79,408.90 611.68,402.05 C611.50,389.69 611.52,389.60 614.00,388.40 C617.20,386.84 634.62,382.96 638.30,382.98 C639.84,382.99 642.31,382.38 643.80,381.63 C648.64,379.18 667.75,373.97 669.48,374.63 C672.02,375.61 673.00,379.33 673.00,388.07 C673.00,392.43 673.41,396.00 673.91,396.00 C674.41,396.00 676.60,393.18 678.78,389.74 C682.55,383.77 684.28,382.01 695.27,372.99 C705.58,364.52 722.13,356.93 725.88,358.94 C726.13,359.07 726.34,359.16 726.54,359.29 C728.00,360.28 728.11,363.28 730.13,399.76 C730.78,411.45 731.10,421.23 730.85,421.49 C730.22,422.11 714.41,426.58 710.00,427.38 C705.38,428.21 693.41,434.22 688.81,438.01 C686.51,439.90 683.81,443.83 681.57,448.55 L 678.00 456.08 L 678.00 489.69 L 670.25 496.16 C665.99,499.72 660.70,503.71 658.50,505.03 C656.30,506.34 653.26,508.64 651.74,510.14 C650.23,511.64 644.15,516.03 638.24,519.90 C632.33,523.77 626.42,527.85 625.09,528.97 ZM 622.58 519.75 C622.83,520.99 623.61,522.00 624.30,522.00 C624.99,522.00 628.47,519.30 632.03,515.99 C635.59,512.69 639.62,509.69 641.00,509.34 C645.11,508.28 652.09,503.04 659.01,495.81 C663.77,490.84 666.22,489.00 668.11,489.00 C669.53,489.00 671.39,488.21 672.25,487.25 C673.66,485.68 673.68,484.13 672.42,472.15 C671.64,464.80 671.24,458.43 671.51,457.98 C671.79,457.54 671.48,456.99 670.83,456.78 C670.07,456.52 669.93,455.68 670.44,454.44 C670.98,453.11 671.38,452.91 671.72,453.80 C672.42,455.69 674.93,452.13 674.97,449.20 C675.01,446.41 677.76,440.80 679.64,439.70 C681.45,438.64 684.23,433.18 683.53,432.05 C682.78,430.84 692.22,426.54 699.00,425.01 C702.03,424.32 705.85,423.19 707.50,422.49 C709.15,421.78 713.15,420.71 716.39,420.11 C719.87,419.46 721.97,419.17 723.21,417.98 C725.10,416.16 724.94,412.22 724.53,401.62 C724.50,400.97 724.47,400.29 724.45,399.58 C724.09,390.19 723.67,380.70 723.53,378.50 C723.39,376.30 723.22,372.36 723.14,369.75 C723.02,365.70 722.70,365.00 720.99,365.00 C719.88,365.00 718.19,365.42 717.24,365.94 C716.28,366.45 712.58,368.29 709.00,370.01 C695.51,376.53 693.48,377.96 692.55,381.64 C691.65,385.23 687.92,390.06 685.26,391.08 C684.02,391.56 681.62,394.21 679.92,396.98 C676.54,402.47 672.89,404.32 670.37,401.80 C669.51,400.94 668.67,397.39 668.31,393.13 C667.76,386.62 667.42,385.72 664.77,383.84 C662.00,381.86 661.40,381.81 654.17,382.97 C644.30,384.55 640.37,385.76 635.77,388.65 C633.13,390.32 630.56,391.00 626.97,391.00 C624.18,391.00 620.58,391.68 618.97,392.52 C618.26,392.88 617.70,393.15 617.29,393.56 C615.85,395.00 616.26,398.28 618.25,414.50 L 618.44 416.00 C619.08,421.23 619.29,427.52 618.91,430.00 C618.21,434.55 618.33,438.86 620.04,469.50 C620.56,478.85 621.24,493.48 621.55,502.00 C621.86,510.52 622.32,518.51 622.58,519.75 ZM 774.37 527.11 C768.94,528.27 763.57,529.43 762.44,529.69 C761.31,529.95 759.90,529.56 759.33,528.83 C758.08,527.25 757.01,516.98 756.41,500.63 C756.17,494.10 755.78,488.45 755.55,488.08 C755.31,487.70 755.50,485.73 755.96,483.69 C756.95,479.27 755.50,478.77 752.12,482.37 C750.90,483.67 747.33,486.46 744.20,488.57 C741.06,490.68 736.21,494.31 733.41,496.64 C726.32,502.55 722.06,504.42 717.60,503.59 C711.57,502.45 708.48,495.39 711.66,490.00 C714.13,485.81 731.71,472.24 744.06,465.00 C746.40,463.62 751.56,459.58 755.53,456.00 C772.41,440.77 787.30,429.00 789.68,429.00 C790.33,429.00 791.82,427.65 793.00,426.00 C795.50,422.49 810.75,410.00 812.53,410.00 C814.74,410.00 816.20,412.81 815.55,415.79 C815.20,417.36 815.39,419.89 815.96,421.39 C816.53,422.90 817.26,432.99 817.57,443.82 C818.21,465.94 819.59,495.90 820.47,506.60 C821.13,514.62 820.79,515.21 814.50,516.81 C812.30,517.37 806.67,518.78 802.00,519.94 C797.33,521.11 791.42,522.72 788.87,523.53 C786.33,524.33 779.80,525.94 774.37,527.11 ZM 119.62 770.49 L 119.52 770.52 C111.91,772.73 110.12,773.25 109.06,772.59 C108.74,772.39 108.48,772.07 108.13,771.66 C107.30,770.65 107.74,768.34 109.94,762.32 C111.55,757.92 113.60,751.43 114.51,747.91 C115.42,744.38 117.08,740.51 118.20,739.31 C119.42,738.00 120.31,735.55 120.43,733.22 C120.53,731.07 121.60,727.64 122.81,725.60 C124.01,723.56 125.00,720.85 125.00,719.58 C125.00,718.32 126.10,715.66 127.44,713.68 C128.84,711.62 130.01,708.26 130.19,705.80 C130.42,702.67 130.97,701.43 132.25,701.19 C133.59,700.93 134.00,701.53 134.00,703.73 C134.00,705.31 133.60,707.03 133.12,707.55 C132.64,708.07 131.69,710.30 131.02,712.50 C130.35,714.70 128.98,718.30 127.97,720.50 C126.97,722.70 125.83,727.09 125.45,730.26 C125.08,733.43 124.37,736.27 123.88,736.57 C122.36,737.52 122.92,742.08 124.87,744.56 C126.03,746.03 126.55,747.90 126.25,749.47 C125.76,752.01 123.66,752.87 122.50,751.00 C122.10,750.35 121.25,750.33 120.10,750.95 C118.27,751.93 114.22,764.56 115.37,765.70 C116.22,766.55 128.16,762.98 129.96,761.34 C131.23,760.18 131.11,760.00 129.14,760.00 C127.50,760.00 126.95,759.50 127.19,758.25 C127.57,756.22 131.52,755.36 133.38,756.90 C134.27,757.64 134.97,757.63 135.75,756.85 C136.55,756.05 137.72,756.05 140.04,756.86 C141.79,757.48 143.52,757.81 143.86,757.61 C144.21,757.41 147.24,756.96 150.59,756.61 C159.54,755.68 164.25,753.07 166.43,747.81 C167.41,745.44 169.16,741.47 170.31,739.00 C172.50,734.27 174.06,716.84 172.01,720.00 C170.52,722.28 170.81,720.59 172.44,717.45 C173.25,715.90 173.64,713.45 173.33,711.90 C172.85,709.50 173.05,709.20 174.79,709.65 C177.61,710.39 180.54,708.56 181.78,705.29 C184.31,698.58 187.08,683.93 186.45,680.57 C185.89,677.58 186.31,676.35 189.26,672.28 C193.38,666.62 196.64,659.47 197.46,654.34 C197.78,652.31 198.52,650.08 199.09,649.39 C199.67,648.69 201.46,642.68 203.08,636.02 C204.69,629.36 206.72,622.25 207.58,620.21 C209.61,615.44 214.21,601.35 216.48,593.00 C217.45,589.42 218.84,584.47 219.58,582.00 C220.32,579.53 221.24,575.06 221.62,572.07 C222.10,568.29 223.00,566.01 224.58,564.57 C225.92,563.36 227.97,558.98 229.54,554.00 C231.00,549.33 233.12,543.03 234.23,540.00 C235.34,536.97 236.98,529.50 237.87,523.38 C239.38,513.08 239.74,512.04 242.75,509.23 C244.54,507.56 246.01,505.82 246.03,505.35 C246.05,504.88 246.93,501.35 248.00,497.50 C250.79,487.44 250.70,486.67 246.75,487.29 C239.63,488.41 230.27,490.94 226.00,492.89 C223.43,494.07 219.35,494.97 216.50,494.99 C209.04,495.05 198.92,499.04 196.70,502.80 C194.51,506.52 190.98,521.01 189.47,532.50 C189.11,535.25 188.40,538.01 187.89,538.63 C187.07,539.62 184.70,547.56 180.92,562.00 C180.27,564.47 179.07,568.84 178.24,571.71 C177.42,574.58 176.99,578.18 177.29,579.71 C177.60,581.33 177.05,584.39 175.96,587.00 C174.94,589.47 173.60,593.53 173.00,596.00 C171.26,603.16 169.92,605.89 167.84,606.55 C166.78,606.89 165.30,606.67 164.57,606.06 C162.09,604.00 157.95,597.33 156.09,592.40 C155.07,589.71 152.35,583.00 150.05,577.50 C147.74,572.00 144.71,564.66 143.31,561.19 C141.76,557.36 139.63,554.05 137.88,552.75 C136.28,551.57 135.00,549.68 135.00,548.50 C135.00,545.29 128.29,524.97 125.98,521.19 C124.32,518.48 123.47,517.96 121.23,518.32 C117.19,518.96 111.05,521.72 107.32,524.57 C104.70,526.57 103.63,526.87 102.08,526.04 C98.91,524.34 94.72,524.82 85.00,528.00 C79.95,529.65 75.07,531.01 74.16,531.02 C70.01,531.05 69.75,532.51 72.81,538.61 C74.44,541.85 77.68,548.32 80.01,552.98 C82.35,557.65 85.24,562.83 86.44,564.48 C87.64,566.14 90.58,571.78 92.97,577.00 C95.37,582.22 98.83,589.24 100.66,592.60 C102.50,595.95 104.00,599.38 104.00,600.22 C104.00,601.07 104.60,602.25 105.34,602.86 C106.70,604.00 107.87,606.21 114.94,621.00 C120.26,632.13 123.01,637.01 125.20,639.20 C126.19,640.19 127.00,641.73 127.00,642.63 C127.00,643.53 130.60,651.20 135.00,659.68 C139.40,668.16 143.00,675.97 143.00,677.02 C143.00,678.08 142.14,680.87 141.09,683.22 C140.04,685.58 138.80,689.30 138.34,691.50 C137.70,694.57 136.98,695.57 135.25,695.82 C133.37,696.09 133.00,695.67 133.00,693.30 C133.00,691.75 133.90,688.79 135.00,686.74 C138.34,680.50 137.67,677.22 129.90,661.68 C125.99,653.88 122.24,646.83 121.57,646.00 C120.89,645.17 119.32,642.03 118.07,639.00 C116.83,635.97 114.43,631.03 112.74,628.00 C111.04,624.97 104.49,612.38 98.19,600.00 C83.69,571.57 72.97,551.06 65.07,536.64 C61.52,530.15 61.63,528.48 65.72,526.90 C68.72,525.75 80.02,523.29 86.50,522.38 C88.70,522.07 91.96,521.16 93.75,520.36 C95.54,519.56 98.24,518.73 99.75,518.52 C103.37,518.01 115.48,515.07 120.40,513.51 C122.55,512.82 125.13,512.48 126.13,512.75 C127.91,513.21 131.97,520.76 136.16,531.42 C137.25,534.17 138.73,537.57 139.46,538.96 C140.19,540.36 142.21,544.88 143.95,549.00 C145.69,553.12 147.74,557.85 148.51,559.50 C154.29,571.89 165.00,596.27 165.00,597.04 C165.00,597.57 165.43,598.00 165.96,598.00 C166.49,598.00 167.44,596.09 168.08,593.75 C170.96,583.16 173.31,576.82 174.52,576.35 C175.40,576.02 175.84,573.76 175.88,569.45 C175.91,565.29 176.50,562.17 177.55,560.57 C178.44,559.20 178.87,557.61 178.51,557.02 C178.15,556.43 178.74,554.05 179.83,551.72 C180.92,549.40 182.13,544.35 182.51,540.50 C182.89,536.65 184.06,531.25 185.10,528.50 C186.15,525.75 187.00,522.51 187.00,521.31 C187.00,520.10 188.12,516.00 189.50,512.19 C190.88,508.38 192.00,503.67 192.00,501.74 C192.00,495.74 197.39,492.00 206.02,492.00 C208.07,492.00 211.72,491.28 214.12,490.41 C216.53,489.53 222.07,488.39 226.43,487.88 C230.79,487.37 234.90,486.50 235.56,485.95 C236.22,485.40 239.30,484.29 242.41,483.48 C245.51,482.67 249.14,481.30 250.47,480.43 C253.34,478.55 256.90,478.86 258.32,481.13 C259.09,482.36 258.63,484.23 256.48,488.63 C254.90,491.86 253.09,496.75 252.46,499.50 C251.22,504.90 245.26,524.13 239.61,541.00 C237.67,546.78 234.43,556.90 232.41,563.50 C230.38,570.10 226.51,582.03 223.79,590.00 C221.08,597.97 218.28,606.97 217.59,610.00 C216.89,613.03 214.73,620.00 212.80,625.50 C208.96,636.44 201.89,658.54 196.98,675.00 C195.26,680.78 193.01,687.75 191.98,690.50 C190.95,693.25 188.72,700.00 187.02,705.50 C185.32,711.00 183.10,717.75 182.08,720.50 C181.07,723.25 179.66,727.53 178.96,730.00 C176.75,737.80 170.87,755.60 170.08,756.87 C169.32,758.10 142.83,765.49 133.39,767.11 C130.58,767.59 124.38,769.11 119.62,770.49 ZM 363.10 585.50 C360.95,590.37 360.45,590.65 357.65,588.54 C356.64,587.77 352.81,586.84 349.15,586.47 C337.64,585.32 325.76,578.15 322.52,570.40 C317.60,558.62 316.51,533.35 320.72,528.73 C321.84,527.50 323.33,525.38 324.04,524.00 C325.75,520.67 331.16,513.72 332.87,512.63 C333.63,512.15 335.81,510.29 337.71,508.49 C343.10,503.41 351.54,501.09 362.45,501.67 C367.38,501.94 372.55,502.75 373.96,503.48 C377.70,505.41 384.11,512.82 387.21,518.80 C389.67,523.54 389.91,525.01 389.92,535.09 C389.93,547.89 388.45,554.69 383.87,562.81 C380.38,568.99 368.97,581.00 366.58,581.00 C365.76,581.00 364.20,583.03 363.10,585.50 ZM 763.41 513.90 L 762.85 523.29 L 767.47 522.66 C773.89,521.78 775.99,520.44 776.03,517.21 C776.07,513.61 778.44,510.57 780.56,511.38 C781.73,511.83 782.04,512.72 781.61,514.43 C781.26,515.82 781.47,516.99 782.12,517.21 C783.71,517.74 792.30,516.45 800.50,514.46 C804.35,513.53 809.08,512.47 811.00,512.11 C811.96,511.93 812.68,512.06 813.20,511.80 C814.72,511.04 814.56,506.94 813.59,482.08 C813.44,478.42 813.28,474.33 813.11,469.72 C811.46,426.43 810.95,420.47 808.90,420.61 C807.04,420.75 795.20,429.72 789.75,435.12 C787.03,437.82 786.00,439.69 786.00,441.92 C786.00,444.61 785.65,445.00 783.25,445.00 C781.67,445.00 778.06,446.70 774.79,448.97 C771.65,451.15 766.47,454.31 763.29,456.00 C755.76,459.99 750.75,463.65 745.64,468.90 C739.43,475.27 732.09,481.02 727.55,483.07 C721.16,485.94 719.15,488.08 718.41,492.75 C717.83,496.48 717.97,497.00 719.62,496.98 C722.43,496.95 729.24,493.57 731.40,491.14 C732.45,489.96 733.80,489.00 734.40,488.99 C735.01,488.99 737.68,486.73 740.35,483.96 C745.93,478.18 754.25,473.48 756.58,474.79 C757.42,475.25 759.50,479.43 761.21,484.07 C764.49,492.99 764.57,494.14 763.41,513.90 ZM 891.66 398.25 C893.29,401.47 895.84,401.76 899.14,399.09 C901.36,397.29 901.48,396.62 901.19,388.00 C901.02,382.96 900.40,377.63 899.81,376.17 C899.22,374.70 898.16,370.58 897.46,367.00 C897.22,365.80 897.00,364.64 896.78,363.53 C893.51,346.90 892.26,340.52 894.41,335.64 C895.89,332.28 898.99,329.64 904.15,324.84 C909.68,319.70 914.61,315.35 915.10,315.17 C916.61,314.61 916.11,305.60 914.44,303.22 C911.17,298.55 905.36,301.27 891.66,313.92 C886.25,318.91 881.11,323.00 880.23,323.00 C879.36,323.00 877.26,322.59 875.57,322.08 C872.35,321.12 861.98,318.92 851.00,316.88 C847.42,316.21 842.55,314.84 840.17,313.83 C835.38,311.81 825.07,311.36 821.93,313.04 C818.24,315.01 819.71,317.42 827.00,321.36 C830.85,323.44 834.65,325.80 835.46,326.60 C836.26,327.40 838.62,328.84 840.71,329.80 C846.72,332.55 858.43,339.28 859.23,340.44 C860.70,342.55 859.90,344.07 853.86,350.73 C850.48,354.45 846.72,359.08 845.50,361.01 C843.85,363.61 842.89,365.20 841.48,366.01 C839.28,367.27 836.02,366.67 827.45,365.08 L 826.78 364.96 C821.30,363.94 819.76,363.96 818.48,365.02 C815.42,367.56 817.17,370.33 824.00,373.78 C827.64,375.62 830.93,378.04 831.48,379.28 C832.02,380.50 833.26,382.09 834.24,382.82 C836.43,384.43 839.51,390.36 840.47,394.82 C841.27,398.52 843.30,399.83 845.46,398.04 C847.77,396.12 849.44,386.17 848.23,381.59 C846.80,376.20 847.92,374.32 855.70,369.00 C859.32,366.52 864.21,362.50 866.56,360.05 C870.48,355.97 871.04,355.70 873.36,356.76 C875.13,357.56 876.34,359.35 877.36,362.70 C878.16,365.34 880.83,372.05 883.29,377.62 C885.75,383.18 888.32,389.48 889.01,391.62 C889.70,393.75 890.89,396.74 891.66,398.25 ZM 340.00 579.35 C340.83,579.68 345.33,579.83 350.00,579.68 C357.48,579.43 359.28,578.98 364.96,575.95 C370.41,573.04 372.31,571.25 377.10,564.50 C386.25,551.61 388.74,540.38 385.08,528.53 C381.07,515.54 370.96,506.00 361.19,506.00 C351.68,506.00 339.16,512.54 333.16,520.64 C323.79,533.29 321.20,553.71 327.37,566.32 C329.89,571.48 335.90,577.67 340.00,579.35 ZM 876.50 317.47 C878.36,317.96 883.24,314.52 886.88,310.16 C888.87,307.78 892.08,305.01 894.00,304.02 C895.92,303.03 898.36,301.26 899.40,300.11 C900.45,298.95 901.89,298.00 902.60,298.00 C904.87,298.00 904.96,296.43 902.93,292.33 C901.29,289.00 900.79,284.96 900.00,268.41 C898.84,244.19 898.37,241.00 895.93,241.00 C894.93,241.00 893.84,241.44 893.51,241.98 C893.17,242.53 891.91,242.99 890.70,243.01 C882.58,243.16 880.32,244.03 878.99,247.52 C878.27,249.41 877.11,249.97 872.75,250.51 C869.66,250.90 865.63,250.71 863.24,250.06 C859.71,249.11 858.45,249.23 854.80,250.87 C852.43,251.92 849.78,253.02 848.90,253.30 C847.60,253.72 847.35,255.11 847.58,260.61 C847.74,264.35 848.14,269.45 848.47,271.95 C848.80,274.45 848.67,278.64 848.17,281.25 C847.60,284.20 847.64,289.41 848.27,295.02 C849.17,303.15 849.10,304.24 847.48,306.03 C845.20,308.54 845.61,308.90 851.30,309.43 C854.04,309.69 856.81,310.67 858.05,311.84 C859.22,312.93 863.59,314.57 867.83,315.51 C872.05,316.45 875.95,317.33 876.50,317.47 ZM 553.75 578.25 L 545.28 584.00 L 536.89 583.91 C522.81,583.76 514.02,580.17 505.99,571.28 C499.79,564.42 496.55,557.87 494.99,549.00 C494.36,545.42 493.43,540.25 492.92,537.50 C491.28,528.63 490.13,507.82 490.59,495.50 C490.84,488.90 490.68,481.25 490.25,478.50 C489.49,473.74 489.31,473.51 486.48,473.69 C484.84,473.79 480.02,474.68 475.77,475.66 C470.55,476.86 467.70,477.10 467.02,476.42 C465.63,475.03 464.63,457.85 465.84,456.10 C466.37,455.34 467.52,454.99 468.40,455.32 C469.67,455.81 470.00,457.48 470.00,463.41 C470.00,467.55 470.47,471.17 471.05,471.53 C471.63,471.89 473.67,471.43 475.60,470.52 C477.52,469.61 481.79,468.36 485.08,467.75 C494.16,466.06 494.49,466.64 494.54,484.33 C494.57,495.05 494.96,499.44 496.14,502.04 C497.38,504.79 497.58,507.64 497.10,516.00 C496.44,527.34 497.17,539.73 498.80,545.13 C503.93,562.09 504.33,562.76 514.20,571.05 C520.64,576.45 527.70,579.00 536.24,579.00 C541.13,579.00 542.06,578.63 545.66,575.25 C547.86,573.19 549.96,570.68 550.33,569.67 C550.70,568.66 551.56,568.03 552.25,568.26 C556.87,569.83 573.00,560.22 573.00,555.90 C573.00,554.78 574.72,553.35 577.75,551.95 C580.36,550.75 583.17,549.43 584.00,549.03 C585.11,548.48 585.58,546.18 585.79,540.15 C586.11,531.22 584.92,527.40 582.17,528.54 C579.42,529.67 565.78,531.96 561.62,531.98 C559.44,531.99 556.30,531.11 554.47,529.98 C548.58,526.34 547.96,523.07 546.79,489.38 C546.21,472.78 546.02,458.04 546.38,456.63 C547.13,453.65 549.87,451.93 555.50,450.90 C562.35,449.66 564.62,449.06 568.33,447.50 C570.32,446.68 573.41,445.99 575.22,445.98 C580.71,445.96 581.39,444.97 580.67,438.11 C580.32,434.76 579.08,429.08 577.92,425.48 C575.96,419.42 575.92,418.76 577.40,416.51 C578.37,415.02 579.00,411.92 579.00,408.59 C579.00,403.04 578.02,401.25 575.75,402.67 C575.06,403.10 573.49,403.59 572.25,403.76 C571.01,403.93 568.54,404.93 566.75,405.98 C564.92,407.05 559.82,408.35 555.07,408.94 C547.98,409.82 546.38,409.75 545.00,408.50 C543.21,406.88 541.43,396.94 540.41,382.85 C539.60,371.67 538.71,370.01 532.73,368.50 C530.11,367.84 527.64,366.97 527.23,366.56 C525.98,365.30 530.81,362.20 536.68,360.49 C541.45,359.10 542.49,359.07 543.67,360.24 C545.16,361.73 547.61,394.12 546.61,399.16 C545.76,403.45 547.94,404.45 554.20,402.64 C557.12,401.79 563.10,400.39 567.50,399.51 C571.90,398.64 576.74,397.43 578.25,396.84 C582.84,395.03 583.76,396.77 584.29,408.30 C584.55,413.91 585.30,424.98 585.95,432.90 C586.95,445.13 586.92,447.51 585.71,448.71 C584.30,450.13 571.28,453.48 561.19,455.03 C558.28,455.48 554.78,456.57 553.42,457.46 C550.96,459.07 550.96,459.09 551.42,472.79 C551.96,489.05 553.58,512.80 554.55,518.70 C555.53,524.69 557.96,526.51 564.85,526.44 C570.14,526.38 576.08,524.94 583.75,521.87 C589.29,519.64 590.02,521.36 590.70,538.16 L 591.29 552.64 L 585.40 557.12 C582.15,559.58 578.83,561.93 578.00,562.33 C576.33,563.13 566.60,569.52 553.75,578.25 ZM 757.34 417.45 C758.45,420.34 760.65,418.95 760.10,415.71 C759.77,413.70 762.31,410.89 764.32,411.05 C768.44,411.38 770.00,411.00 771.77,409.25 C774.05,406.99 786.87,397.59 789.61,396.17 C790.77,395.57 792.32,393.60 793.06,391.79 C794.59,388.00 795.69,387.04 798.52,387.02 C801.12,387.00 807.88,381.44 809.05,378.36 C809.61,376.90 810.76,376.00 812.09,376.00 C814.13,376.00 814.16,375.89 812.61,373.54 C810.81,370.78 810.48,366.44 812.00,365.50 C813.71,364.44 813.10,362.00 811.12,362.00 C808.21,362.00 807.06,359.83 806.35,353.06 C805.94,349.13 805.18,346.62 804.30,346.28 C803.53,345.99 798.76,346.55 793.70,347.52 C784.35,349.32 783.46,349.84 777.85,356.82 C777.26,357.56 776.07,357.84 775.15,357.46 C774.24,357.08 769.90,356.56 765.50,356.28 C754.55,355.61 753.75,356.48 755.15,367.51 C755.70,371.90 755.97,378.42 755.73,382.00 C755.49,385.58 755.85,392.62 756.54,397.66 C757.22,402.69 757.54,408.86 757.26,411.36 C756.98,413.86 757.02,416.60 757.34,417.45 ZM 347.50 637.15 C337.97,639.75 320.45,640.42 312.04,638.51 C302.63,636.37 293.58,631.37 286.48,624.41 C280.63,618.68 273.00,608.21 273.00,605.93 C273.00,605.36 272.14,603.23 271.10,601.20 C266.70,592.66 266.00,589.91 266.00,581.27 C266.00,571.42 267.56,571.00 269.61,580.28 C271.87,590.48 274.93,599.16 278.08,604.30 C284.07,614.05 292.14,624.00 294.55,624.60 C295.85,624.93 297.48,625.87 298.17,626.70 C300.57,629.59 309.93,632.85 319.20,634.01 C329.66,635.33 341.08,634.26 347.67,631.36 C362.22,624.95 364.64,623.36 373.31,614.50 C378.16,609.55 383.33,603.59 384.81,601.26 C386.29,598.93 388.07,596.80 388.78,596.53 C390.14,596.01 393.25,599.05 393.55,601.21 C393.65,601.92 394.05,605.09 394.44,608.25 C395.25,614.87 396.94,615.94 403.63,614.08 C405.76,613.49 408.86,613.01 410.53,613.01 C413.99,613.00 428.00,606.61 428.00,605.04 C428.00,603.71 431.68,603.68 432.50,605.00 C433.45,606.53 439.73,606.19 443.15,604.42 C445.81,603.05 446.13,602.45 445.64,599.67 C445.34,597.93 444.79,591.10 444.42,584.50 C444.05,577.90 443.49,572.06 443.17,571.52 C442.86,570.98 442.72,566.93 442.86,562.52 C443.01,558.11 442.64,547.75 442.05,539.50 C441.47,531.25 440.92,516.85 440.83,507.50 C440.74,498.15 440.23,489.38 439.69,488.00 C439.15,486.62 438.55,476.09 438.36,464.58 C437.94,439.46 437.86,439.25 429.26,438.80 L 423.50 438.50 L 427.50 436.39 C429.70,435.22 433.27,433.70 435.43,433.00 C439.03,431.83 439.50,431.90 441.02,433.78 C442.37,435.45 442.72,438.44 442.86,449.67 C442.95,457.28 443.46,467.10 443.98,471.50 C444.51,475.90 444.91,482.42 444.87,486.00 C444.83,489.58 445.49,503.52 446.33,517.00 C449.87,573.55 450.64,588.78 450.23,593.80 C449.99,596.72 450.34,600.40 450.99,601.98 C451.79,603.90 451.86,605.43 451.21,606.58 C450.02,608.71 433.13,614.02 416.50,617.50 C409.90,618.88 403.38,620.42 402.00,620.92 C400.62,621.42 397.82,622.07 395.76,622.35 C390.32,623.11 389.01,621.33 388.97,613.18 L 388.94 606.50 L 386.42 609.50 C385.03,611.15 380.97,615.51 377.39,619.19 C371.69,625.04 368.39,627.42 357.00,633.83 C355.62,634.61 351.35,636.10 347.50,637.15 ZM 647.38 560.62 C642.70,562.57 638.70,562.34 635.63,559.93 C633.45,558.21 633.00,557.04 633.00,553.13 C633.00,547.33 634.57,545.68 653.81,531.27 C669.30,519.66 678.49,514.00 681.83,514.00 C684.98,514.00 691.00,520.07 691.00,523.25 C691.00,527.56 689.03,531.55 686.02,533.33 C684.41,534.28 680.16,537.40 676.57,540.28 C664.76,549.73 651.78,558.78 647.38,560.62 ZM 320.21 723.52 C316.19,724.42 310.57,725.39 307.71,725.68 C303.11,726.15 302.18,725.92 299.75,723.66 C294.19,718.48 297.69,708.24 305.78,706.06 C313.60,703.94 325.68,701.16 330.00,700.48 C332.48,700.09 334.95,699.43 335.50,699.01 C336.05,698.59 338.63,697.94 341.23,697.57 C343.83,697.19 346.22,696.46 346.54,695.94 C346.86,695.42 349.06,695.00 351.42,695.00 C354.69,695.00 356.33,695.61 358.24,697.51 C362.00,701.27 362.70,707.95 359.75,711.73 C358.38,713.48 338.37,719.45 320.21,723.52 ZM 243.95 736.47 C236.55,736.78 226.68,737.20 222.00,737.40 C210.76,737.88 205.15,736.90 202.84,734.05 C199.84,730.35 200.86,722.79 204.70,720.28 C207.48,718.46 217.70,717.26 237.00,716.49 C244.43,716.20 251.40,715.76 252.50,715.52 C254.96,714.99 261.88,716.48 263.24,717.84 C264.82,719.42 266.04,727.78 265.05,730.36 C263.50,734.43 258.60,735.85 243.95,736.47 ZM 572.70 611.75 C564.91,616.21 558.97,617.27 555.81,614.75 C553.49,612.89 552.81,607.40 554.42,603.54 C555.83,600.16 565.79,591.21 573.74,586.18 C576.07,584.71 580.33,581.77 583.22,579.65 C591.71,573.42 595.76,571.71 600.72,572.27 C603.12,572.54 605.87,573.48 606.83,574.35 C610.46,577.63 608.72,587.48 604.07,589.96 C603.02,590.53 601.55,591.59 600.81,592.33 C600.07,593.07 597.86,594.76 595.89,596.09 C593.92,597.41 589.57,600.53 586.22,603.00 C582.87,605.47 576.78,609.41 572.70,611.75 ZM 411.00 695.46 C405.77,697.40 399.89,698.99 397.92,699.00 C391.46,699.00 388.24,692.77 390.98,685.57 C392.11,682.57 396.83,679.43 402.50,677.89 C404.70,677.29 406.95,676.46 407.50,676.04 C409.20,674.74 417.00,673.88 417.00,674.99 C417.00,675.54 416.38,676.00 415.62,676.00 C414.86,676.00 413.66,676.70 412.95,677.56 C412.24,678.41 410.27,679.77 408.58,680.58 C406.89,681.38 404.38,682.66 403.00,683.43 C401.62,684.20 399.23,685.32 397.69,685.92 C395.29,686.85 394.92,687.50 395.19,690.26 C395.49,693.37 395.65,693.49 399.43,693.18 C401.60,693.01 406.10,691.61 409.43,690.08 C412.77,688.55 418.54,686.45 422.25,685.41 C425.96,684.37 429.00,683.23 429.00,682.87 C429.00,682.51 430.06,681.95 431.35,681.63 C433.71,681.03 444.61,674.79 446.39,673.01 C447.84,671.56 444.13,668.00 441.16,668.00 C439.77,668.00 436.80,668.88 434.57,669.96 C432.33,671.03 427.94,672.31 424.80,672.80 C419.73,673.58 419.20,673.51 419.99,672.09 C420.48,671.22 423.49,669.45 426.69,668.16 C429.89,666.88 433.98,665.19 435.78,664.41 C440.29,662.47 445.36,662.62 447.21,664.75 C448.05,665.71 449.00,668.90 449.33,671.83 C449.86,676.59 449.67,677.41 447.52,679.39 C445.08,681.66 428.27,689.05 411.00,695.46 ZM 281.38 508.06 C273.61,517.20 271.37,515.77 276.01,504.63 C278.15,499.50 280.74,495.49 284.42,491.63 C287.34,488.56 290.46,484.95 291.34,483.60 C292.22,482.25 293.97,480.83 295.22,480.43 C298.28,479.47 302.12,476.03 306.20,470.60 C307.59,468.75 312.39,465.78 319.44,462.41 C330.50,457.11 332.46,456.55 338.99,456.84 L 342.47 457.00 L 339.25 459.25 C337.48,460.49 336.03,462.20 336.02,463.05 C335.99,465.38 333.92,467.00 330.95,467.00 C329.50,467.00 327.50,467.90 326.50,469.00 C325.19,470.44 323.41,471.00 320.10,471.01 C317.25,471.01 313.59,471.96 310.50,473.48 C307.75,474.83 304.69,475.95 303.69,475.97 C302.70,475.99 302.15,476.43 302.48,476.97 C302.81,477.50 300.52,480.34 297.41,483.29 C292.24,488.18 291.70,489.10 291.25,493.75 C290.83,498.08 290.41,498.93 288.38,499.44 C287.07,499.77 286.00,500.62 286.00,501.33 C286.00,502.04 283.92,505.07 281.38,508.06 ZM 386.32 467.00 C385.31,470.95 382.21,472.16 379.99,469.48 C378.26,467.41 373.99,465.20 370.88,464.78 C369.55,464.61 366.95,463.39 365.11,462.08 C361.88,459.78 357.42,458.48 348.00,457.08 C343.72,456.45 343.90,456.38 351.66,455.65 C362.77,454.60 370.24,456.20 377.15,461.11 C381.89,464.48 382.53,463.78 382.18,455.69 C381.94,450.34 382.23,448.05 383.25,447.21 C384.54,446.14 388.82,444.94 409.48,439.87 C417.65,437.87 422.59,437.72 422.39,439.50 C422.33,440.05 421.42,440.95 420.37,441.50 C419.32,442.05 417.07,443.50 415.37,444.71 C413.02,446.40 410.30,447.07 403.90,447.54 C396.27,448.10 393.46,448.75 389.00,450.98 C387.95,451.51 387.46,453.50 387.36,457.62 C387.28,460.85 386.82,465.08 386.32,467.00 ZM 489.19 660.50 L 489.05 660.56 C484.54,662.39 482.81,663.09 481.37,662.70 C480.47,662.46 479.68,661.77 478.39,660.66 C475.79,658.42 475.71,658.07 476.58,652.99 C477.09,650.05 478.06,647.47 478.75,647.24 C480.25,646.75 480.44,650.16 478.99,651.61 C477.79,652.81 481.31,657.00 483.54,657.00 C484.88,657.00 490.09,654.58 499.00,649.83 C500.92,648.80 504.98,646.73 508.00,645.23 C511.02,643.73 514.08,641.95 514.80,641.27 C515.51,640.60 517.54,639.36 519.31,638.52 C523.87,636.36 528.17,632.11 527.77,630.16 C527.49,628.78 526.24,628.53 520.22,628.70 C512.34,628.92 511.57,628.23 515.54,624.55 C518.39,621.91 526.01,620.72 529.73,622.34 C532.32,623.46 533.55,628.21 532.50,632.98 C531.74,636.45 527.12,640.29 518.61,644.54 C515.80,645.94 511.70,648.40 509.50,650.01 C507.30,651.62 503.92,653.46 502.00,654.09 C500.08,654.73 497.79,655.87 496.92,656.63 C496.05,657.38 492.57,659.13 489.19,660.50 ZM 216.44 732.12 C222.05,732.83 231.25,732.20 234.82,730.87 C236.09,730.39 241.04,730.00 245.82,730.00 C252.71,729.99 255.17,729.58 257.75,728.01 C261.27,725.86 261.84,723.94 259.53,722.02 C257.18,720.07 240.82,721.03 238.61,723.25 C237.26,724.60 236.42,724.76 234.90,723.95 C233.83,723.37 227.97,722.86 221.89,722.80 C211.32,722.71 210.73,722.81 208.30,725.25 L 205.75 727.79 L 208.57 729.64 C210.12,730.65 213.66,731.77 216.44,732.12 ZM 490.99 392.00 C491.88,398.77 491.83,401.80 490.74,406.88 L 489.37 413.26 L 487.60 408.62 C486.36,405.37 485.68,399.99 485.33,390.58 C484.80,376.22 485.37,373.60 489.22,372.73 C490.47,372.45 495.21,371.26 499.74,370.08 C504.28,368.91 511.27,367.54 515.28,367.03 C519.28,366.52 523.34,365.81 524.28,365.45 C525.23,365.08 525.99,365.17 525.97,365.64 C525.95,366.47 522.65,368.15 514.79,371.36 C512.21,372.41 510.87,373.69 510.40,375.56 C509.74,378.17 509.57,378.22 504.61,377.51 C498.12,376.56 491.95,376.80 490.45,378.04 C489.80,378.58 489.41,380.02 489.57,381.26 C489.73,382.49 490.37,387.33 490.99,392.00 ZM 308.70 718.98 C311.08,719.41 313.76,719.17 315.87,718.33 C317.73,717.60 320.43,717.00 321.87,717.00 C324.55,716.99 331.00,713.65 331.00,712.26 C331.00,711.84 333.58,711.66 336.73,711.86 C343.16,712.26 352.30,710.54 353.88,708.64 C354.45,707.96 354.67,706.46 354.37,705.32 C353.71,702.80 347.37,701.61 342.00,703.00 C340.08,703.50 337.27,704.16 335.77,704.47 C334.27,704.78 331.78,706.26 330.24,707.76 C327.68,710.28 326.92,710.47 320.97,710.15 C312.23,709.67 304.30,711.49 303.45,714.16 C302.60,716.83 304.04,718.14 308.70,718.98 ZM 559.57 608.43 C560.44,609.29 562.05,610.00 563.16,610.00 C566.08,610.00 573.52,604.20 577.51,598.82 C578.68,597.24 580.76,595.95 582.58,595.68 C592.00,594.29 603.28,582.58 597.39,580.32 C595.09,579.44 585.31,584.64 580.00,589.57 C575.26,593.97 564.83,601.00 563.05,601.00 C561.75,601.00 558.00,604.66 558.00,605.93 C558.00,606.44 558.71,607.56 559.57,608.43 ZM 267.42 565.76 C266.44,570.68 265.21,570.58 264.45,565.51 C262.27,550.96 267.49,518.00 271.98,518.00 C274.17,518.00 274.19,521.22 272.04,527.12 C270.82,530.44 270.03,533.37 270.28,533.61 C270.53,533.86 270.29,536.19 269.75,538.78 C269.22,541.38 268.62,547.78 268.42,553.00 C268.23,558.22 267.78,563.97 267.42,565.76 ZM 663.98 535.95 C665.47,539.56 667.27,539.14 675.75,533.22 C681.15,529.44 682.06,528.37 681.81,526.13 C681.53,523.78 681.14,523.54 678.05,523.85 C674.72,524.18 664.96,529.64 663.51,531.98 C663.13,532.61 663.33,534.39 663.98,535.95 ZM 903.61 367.25 C903.90,368.21 904.61,369.00 905.19,369.00 C905.93,369.00 906.00,364.31 905.45,353.75 C905.01,345.36 904.61,337.49 904.57,336.25 C904.48,333.40 903.54,333.39 901.56,336.22 C899.01,339.86 900.03,355.41 903.61,367.25 ZM 485.95 645.55 C484.67,647.10 483.69,647.36 482.74,646.40 C481.80,645.47 483.07,643.00 484.49,643.00 C485.19,643.00 487.05,641.69 488.63,640.10 C491.16,637.54 495.42,634.83 504.00,630.33 C506.79,628.86 511.00,628.56 511.00,629.83 C511.00,631.20 506.75,634.65 502.32,636.87 C500.02,638.03 497.87,639.39 497.56,639.91 C497.24,640.43 494.77,641.58 492.07,642.48 C489.36,643.38 486.61,644.76 485.95,645.55 ZM 468.31 430.42 C465.62,433.55 465.38,433.58 464.67,430.84 C463.83,427.65 465.56,425.25 469.24,424.49 C471.03,424.12 476.12,422.74 480.55,421.41 L 481.01 421.27 C487.43,419.35 489.27,418.80 489.78,419.39 C489.99,419.63 489.98,420.05 489.97,420.64 L 489.97 420.75 C489.89,424.92 487.29,426.40 478.75,427.14 C471.62,427.75 470.24,428.18 468.31,430.42 ZM 642.21 554.13 C645.77,556.34 657.82,547.25 657.96,542.25 C657.99,541.50 656.70,541.00 654.74,541.00 C651.25,541.00 641.10,547.07 640.88,549.28 C640.66,551.55 641.19,553.50 642.21,554.13 ZM 874.12 405.75 C874.02,406.76 871.17,407.66 870.94,406.75 C870.90,406.61 870.83,404.48 870.79,402.00 C870.69,396.80 871.65,394.00 873.54,394.00 C875.39,394.00 876.41,397.80 875.01,399.49 C874.37,400.25 873.94,401.70 874.04,402.69 C874.15,403.69 874.18,405.06 874.12,405.75 ZM 413.42 455.39 C411.19,456.25 410.21,456.15 409.50,455.00 C409.16,454.45 409.56,454.00 410.39,454.00 C412.30,454.00 413.88,451.25 413.28,448.97 C412.60,446.35 414.50,445.78 417.05,447.84 C419.38,449.73 419.04,452.00 416.44,452.00 C415.65,452.00 415.00,452.63 415.00,453.39 C415.00,454.16 414.29,455.06 413.42,455.39 ZM 467.96 445.25 C467.98,447.86 467.58,450.00 467.06,450.00 C465.54,450.00 465.27,448.86 465.15,442.00 C465.03,435.86 465.11,435.64 466.48,438.00 C467.28,439.38 467.95,442.64 467.96,445.25 ZM 915.51 319.50 L 914.85 322.50 L 917.92 319.56 C921.56,316.09 922.10,312.90 918.92,313.73 C916.75,314.30 916.59,314.56 915.51,319.50 ZM 839.04 403.81 C841.03,405.95 846.73,407.00 845.50,405.00 C845.16,404.45 844.01,404.00 842.94,404.00 C841.87,404.00 840.10,403.10 839.00,402.00 C836.37,399.37 836.40,400.98 839.04,403.81 ZM 395.00 477.44 C395.00,479.11 393.57,480.24 392.64,479.31 C391.44,478.11 391.99,476.00 393.50,476.00 C394.33,476.00 395.00,476.65 395.00,477.44 ZM 848.60 344.41 C849.31,346.24 851.00,345.56 851.00,343.44 C851.00,342.65 850.33,342.00 849.50,342.00 C847.82,342.00 847.75,342.18 848.60,344.41 ZM 747.00 293.80 C747.00,296.21 746.48,296.59 745.45,294.91 C745.08,294.31 745.28,293.32 745.89,292.71 C746.70,291.90 747.00,292.18 747.00,293.80 Z" fill="rgb(247,253,252)"/>
<path d="M 0.00 482.00 L 0.00 0.00 L 543.50 0.00 L 1087.00 0.00 L 1087.00 482.00 L 1087.00 964.00 L 543.50 964.00 L 0.00 964.00 L 0.00 482.00 ZM 119.62 770.49 C124.38,769.11 130.58,767.59 133.39,767.11 C142.83,765.49 169.32,758.10 170.08,756.87 C170.87,755.60 176.75,737.80 178.96,730.00 C179.66,727.53 181.07,723.25 182.08,720.50 C183.10,717.75 185.32,711.00 187.02,705.50 C188.72,700.00 190.95,693.25 191.98,690.50 C193.01,687.75 195.26,680.78 196.98,675.00 C201.89,658.54 208.96,636.44 212.80,625.50 C214.73,620.00 216.89,613.03 217.59,610.00 C218.28,606.97 221.08,597.97 223.79,590.00 C226.51,582.03 230.38,570.10 232.41,563.50 C234.43,556.90 237.67,546.78 239.61,541.00 C245.26,524.13 251.22,504.90 252.46,499.50 C253.09,496.75 254.90,491.86 256.48,488.63 C258.63,484.23 259.09,482.36 258.32,481.13 C256.90,478.86 253.34,478.55 250.47,480.43 C249.14,481.30 245.51,482.67 242.41,483.48 C239.30,484.29 236.22,485.40 235.56,485.95 C234.90,486.50 230.79,487.37 226.43,487.88 C222.07,488.39 216.53,489.53 214.12,490.41 C211.72,491.28 208.07,492.00 206.02,492.00 C197.39,492.00 192.00,495.74 192.00,501.74 C192.00,503.67 190.88,508.38 189.50,512.19 C188.12,516.00 187.00,520.10 187.00,521.31 C187.00,522.51 186.15,525.75 185.10,528.50 C184.06,531.25 182.89,536.65 182.51,540.50 C182.13,544.35 180.92,549.40 179.83,551.72 C178.74,554.05 178.15,556.43 178.51,557.02 C178.87,557.61 178.44,559.20 177.55,560.57 C176.50,562.17 175.91,565.29 175.88,569.45 C175.84,573.76 175.40,576.02 174.52,576.35 C173.31,576.82 170.96,583.16 168.08,593.75 C167.44,596.09 166.49,598.00 165.96,598.00 C165.43,598.00 165.00,597.57 165.00,597.04 C165.00,596.27 154.29,571.89 148.51,559.50 C147.74,557.85 145.69,553.12 143.95,549.00 C142.21,544.88 140.19,540.36 139.46,538.96 C138.73,537.57 137.25,534.17 136.16,531.42 C131.97,520.76 127.91,513.21 126.13,512.75 C125.13,512.48 122.55,512.82 120.40,513.51 C115.48,515.07 103.37,518.01 99.75,518.52 C98.24,518.73 95.54,519.56 93.75,520.36 C91.96,521.16 88.70,522.07 86.50,522.38 C80.02,523.29 68.72,525.75 65.72,526.90 C61.63,528.48 61.52,530.15 65.07,536.64 C72.97,551.06 83.69,571.57 98.19,600.00 C104.49,612.38 111.04,624.97 112.74,628.00 C114.43,631.03 116.83,635.97 118.07,639.00 C119.32,642.03 120.89,645.17 121.57,646.00 C122.24,646.83 125.99,653.88 129.90,661.68 C137.67,677.22 138.34,680.50 135.00,686.74 C133.90,688.79 133.00,691.75 133.00,693.30 C133.00,695.67 133.37,696.09 135.25,695.82 C136.98,695.57 137.70,694.57 138.34,691.50 C138.80,689.30 140.04,685.58 141.09,683.22 C142.14,680.87 143.00,678.08 143.00,677.02 C143.00,675.97 139.40,668.16 135.00,659.68 C130.60,651.20 127.00,643.53 127.00,642.63 C127.00,641.73 126.19,640.19 125.20,639.20 C123.01,637.01 120.26,632.13 114.94,621.00 C107.87,606.21 106.70,604.00 105.34,602.86 C104.60,602.25 104.00,601.07 104.00,600.22 C104.00,599.38 102.50,595.95 100.66,592.60 C98.83,589.24 95.37,582.22 92.97,577.00 C90.58,571.78 87.64,566.14 86.44,564.48 C85.24,562.83 82.35,557.65 80.01,552.98 C77.68,548.32 74.44,541.85 72.81,538.61 C69.75,532.51 70.01,531.05 74.16,531.02 C75.07,531.01 79.95,529.65 85.00,528.00 C94.72,524.82 98.91,524.34 102.08,526.04 C103.63,526.87 104.70,526.57 107.32,524.57 C111.05,521.72 117.19,518.96 121.23,518.32 C123.47,517.96 124.32,518.48 125.98,521.19 C128.29,524.97 135.00,545.29 135.00,548.50 C135.00,549.68 136.28,551.57 137.88,552.75 C139.63,554.05 141.76,557.36 143.31,561.19 C144.71,564.66 147.74,572.00 150.05,577.50 C152.35,583.00 155.07,589.71 156.09,592.40 C157.95,597.33 162.09,604.00 164.57,606.06 C165.30,606.67 166.78,606.89 167.84,606.55 C169.92,605.89 171.26,603.16 173.00,596.00 C173.60,593.53 174.94,589.47 175.96,587.00 C177.05,584.39 177.60,581.33 177.29,579.71 C176.99,578.18 177.42,574.58 178.24,571.71 C179.07,568.84 180.27,564.47 180.92,562.00 C184.70,547.56 187.07,539.62 187.89,538.63 C188.40,538.01 189.11,535.25 189.47,532.50 C190.98,521.01 194.51,506.52 196.70,502.80 C198.92,499.04 209.04,495.05 216.50,494.99 C219.35,494.97 223.43,494.07 226.00,492.89 C230.27,490.94 239.63,488.41 246.75,487.29 C250.70,486.67 250.79,487.44 248.00,497.50 C246.93,501.35 246.05,504.88 246.03,505.35 C246.01,505.82 244.54,507.56 242.75,509.23 C239.74,512.04 239.38,513.08 237.87,523.38 C236.98,529.50 235.34,536.97 234.23,540.00 C233.12,543.03 231.00,549.33 229.54,554.00 C227.97,558.98 225.92,563.36 224.58,564.57 C223.00,566.01 222.10,568.29 221.62,572.07 C221.24,575.06 220.32,579.53 219.58,582.00 C218.84,584.47 217.45,589.42 216.48,593.00 C214.21,601.35 209.61,615.44 207.58,620.21 C206.72,622.25 204.69,629.36 203.08,636.02 C201.46,642.68 199.67,648.69 199.09,649.39 C198.52,650.08 197.78,652.31 197.46,654.34 C196.64,659.47 193.38,666.62 189.26,672.28 C186.31,676.35 185.89,677.58 186.45,680.57 C187.08,683.93 184.31,698.58 181.78,705.29 C180.54,708.56 177.61,710.39 174.79,709.65 C173.05,709.20 172.85,709.50 173.33,711.90 C173.64,713.45 173.25,715.90 172.44,717.45 C170.81,720.59 170.52,722.28 172.01,720.00 C174.06,716.84 172.50,734.27 170.31,739.00 C169.16,741.47 167.41,745.44 166.43,747.81 C164.25,753.07 159.54,755.68 150.59,756.61 C147.24,756.96 144.21,757.41 143.86,757.61 C143.52,757.81 141.79,757.48 140.04,756.86 C137.72,756.05 136.55,756.05 135.75,756.85 C134.97,757.63 134.27,757.64 133.38,756.90 C131.52,755.36 127.57,756.22 127.19,758.25 C126.95,759.50 127.50,760.00 129.14,760.00 C131.11,760.00 131.23,760.18 129.96,761.34 C128.16,762.98 116.22,766.55 115.37,765.70 C114.22,764.56 118.27,751.93 120.10,750.95 C121.25,750.33 122.10,750.35 122.50,751.00 C123.66,752.87 125.76,752.01 126.25,749.47 C126.55,747.90 126.03,746.03 124.87,744.56 C122.92,742.08 122.36,737.52 123.88,736.57 C124.37,736.27 125.08,733.43 125.45,730.26 C125.83,727.09 126.97,722.70 127.97,720.50 C128.98,718.30 130.35,714.70 131.02,712.50 C131.69,710.30 132.64,708.07 133.12,707.55 C133.60,707.03 134.00,705.31 134.00,703.73 C134.00,701.53 133.59,700.93 132.25,701.19 C130.97,701.43 130.42,702.67 130.19,705.80 C130.01,708.26 128.84,711.62 127.44,713.68 C126.10,715.66 125.00,718.32 125.00,719.58 C125.00,720.85 124.01,723.56 122.81,725.60 C121.60,727.64 120.53,731.07 120.43,733.22 C120.31,735.55 119.42,738.00 118.20,739.31 C117.08,740.51 115.42,744.38 114.51,747.91 C113.60,751.43 111.55,757.92 109.94,762.32 C107.74,768.34 107.30,770.65 108.13,771.66 C109.58,773.41 109.54,773.41 119.62,770.49 ZM 243.95 736.47 C258.60,735.85 263.50,734.43 265.05,730.36 C266.04,727.78 264.82,719.42 263.24,717.84 C261.88,716.48 254.96,714.99 252.50,715.52 C251.40,715.76 244.43,716.20 237.00,716.49 C217.70,717.26 207.48,718.46 204.70,720.28 C200.86,722.79 199.84,730.35 202.84,734.05 C205.15,736.90 210.76,737.88 222.00,737.40 C226.68,737.20 236.55,736.78 243.95,736.47 ZM 320.21 723.52 C338.37,719.45 358.38,713.48 359.75,711.73 C362.70,707.95 362.00,701.27 358.24,697.51 C356.33,695.61 354.69,695.00 351.42,695.00 C349.06,695.00 346.86,695.42 346.54,695.94 C346.22,696.46 343.83,697.19 341.23,697.57 C338.63,697.94 336.05,698.59 335.50,699.01 C334.95,699.43 332.48,700.09 330.00,700.48 C325.68,701.16 313.60,703.94 305.78,706.06 C297.69,708.24 294.19,718.48 299.75,723.66 C302.18,725.92 303.11,726.15 307.71,725.68 C310.57,725.39 316.19,724.42 320.21,723.52 ZM 411.00 695.46 C428.27,689.05 445.08,681.66 447.52,679.39 C449.67,677.41 449.86,676.59 449.33,671.83 C449.00,668.90 448.05,665.71 447.21,664.75 C445.36,662.62 440.29,662.47 435.78,664.41 C433.98,665.19 429.89,666.88 426.69,668.16 C423.49,669.45 420.48,671.22 419.99,672.09 C419.20,673.51 419.73,673.58 424.80,672.80 C427.94,672.31 432.33,671.03 434.57,669.96 C436.80,668.88 439.77,668.00 441.16,668.00 C444.13,668.00 447.84,671.56 446.39,673.01 C444.61,674.79 433.71,681.03 431.35,681.63 C430.06,681.95 429.00,682.51 429.00,682.87 C429.00,683.23 425.96,684.37 422.25,685.41 C418.54,686.45 412.77,688.55 409.43,690.08 C406.10,691.61 401.60,693.01 399.43,693.18 C395.65,693.49 395.49,693.37 395.19,690.26 C394.92,687.50 395.29,686.85 397.69,685.92 C399.23,685.32 401.62,684.20 403.00,683.43 C404.38,682.66 406.89,681.38 408.58,680.58 C410.27,679.77 412.24,678.41 412.95,677.56 C413.66,676.70 414.86,676.00 415.62,676.00 C416.38,676.00 417.00,675.54 417.00,674.99 C417.00,673.88 409.20,674.74 407.50,676.04 C406.95,676.46 404.70,677.29 402.50,677.89 C396.83,679.43 392.11,682.57 390.98,685.57 C388.24,692.77 391.46,699.00 397.92,699.00 C399.89,698.99 405.77,697.40 411.00,695.46 ZM 489.19 660.50 C492.57,659.13 496.05,657.38 496.92,656.63 C497.79,655.87 500.08,654.73 502.00,654.09 C503.92,653.46 507.30,651.62 509.50,650.01 C511.70,648.40 515.80,645.94 518.61,644.54 C527.12,640.29 531.74,636.45 532.50,632.98 C533.55,628.21 532.32,623.46 529.73,622.34 C526.01,620.72 518.39,621.91 515.54,624.55 C511.57,628.23 512.34,628.92 520.22,628.70 C526.24,628.53 527.49,628.78 527.77,630.16 C528.17,632.11 523.87,636.36 519.31,638.52 C517.54,639.36 515.51,640.60 514.80,641.27 C514.08,641.95 511.02,643.73 508.00,645.23 C504.98,646.73 500.92,648.80 499.00,649.83 C490.09,654.58 484.88,657.00 483.54,657.00 C481.31,657.00 477.79,652.81 478.99,651.61 C480.44,650.16 480.25,646.75 478.75,647.24 C478.06,647.47 477.09,650.05 476.58,652.99 C475.71,658.07 475.79,658.42 478.39,660.66 C481.75,663.55 481.68,663.55 489.19,660.50 ZM 485.95 645.55 C486.61,644.76 489.36,643.38 492.07,642.48 C494.77,641.58 497.24,640.43 497.56,639.91 C497.87,639.39 500.02,638.03 502.32,636.87 C506.75,634.65 511.00,631.20 511.00,629.83 C511.00,628.56 506.79,628.86 504.00,630.33 C495.42,634.83 491.16,637.54 488.63,640.10 C487.05,641.69 485.19,643.00 484.49,643.00 C483.07,643.00 481.80,645.47 482.74,646.40 C483.69,647.36 484.67,647.10 485.95,645.55 ZM 347.50 637.15 C351.35,636.10 355.62,634.61 357.00,633.83 C368.39,627.42 371.69,625.04 377.39,619.19 C380.97,615.51 385.03,611.15 386.42,609.50 L 388.94 606.50 L 388.97 613.18 C389.01,621.33 390.32,623.11 395.76,622.35 C397.82,622.07 400.62,621.42 402.00,620.92 C403.38,620.42 409.90,618.88 416.50,617.50 C433.13,614.02 450.02,608.71 451.21,606.58 C451.86,605.43 451.79,603.90 450.99,601.98 C450.34,600.40 449.99,596.72 450.23,593.80 C450.64,588.78 449.87,573.55 446.33,517.00 C445.49,503.52 444.83,489.58 444.87,486.00 C444.91,482.42 444.51,475.90 443.98,471.50 C443.46,467.10 442.95,457.28 442.86,449.67 C442.72,438.44 442.37,435.45 441.02,433.78 C439.50,431.90 439.03,431.83 435.43,433.00 C433.27,433.70 429.70,435.22 427.50,436.39 L 423.50 438.50 L 429.26 438.80 C437.86,439.25 437.94,439.46 438.36,464.58 C438.55,476.09 439.15,486.62 439.69,488.00 C440.23,489.38 440.74,498.15 440.83,507.50 C440.92,516.85 441.47,531.25 442.05,539.50 C442.64,547.75 443.01,558.11 442.86,562.52 C442.72,566.93 442.86,570.98 443.17,571.52 C443.49,572.06 444.05,577.90 444.42,584.50 C444.79,591.10 445.34,597.93 445.64,599.67 C446.13,602.45 445.81,603.05 443.15,604.42 C439.73,606.19 433.45,606.53 432.50,605.00 C431.68,603.68 428.00,603.71 428.00,605.04 C428.00,606.61 413.99,613.00 410.53,613.01 C408.86,613.01 405.76,613.49 403.63,614.08 C396.94,615.94 395.25,614.87 394.44,608.25 C394.05,605.09 393.65,601.92 393.55,601.21 C393.25,599.05 390.14,596.01 388.78,596.53 C388.07,596.80 386.29,598.93 384.81,601.26 C383.33,603.59 378.16,609.55 373.31,614.50 C364.64,623.36 362.22,624.95 347.67,631.36 C341.08,634.26 329.66,635.33 319.20,634.01 C309.93,632.85 300.57,629.59 298.17,626.70 C297.48,625.87 295.85,624.93 294.55,624.60 C292.14,624.00 284.07,614.05 278.08,604.30 C274.93,599.16 271.87,590.48 269.61,580.28 C267.56,571.00 266.00,571.42 266.00,581.27 C266.00,589.91 266.70,592.66 271.10,601.20 C272.14,603.23 273.00,605.36 273.00,605.93 C273.00,608.21 280.63,618.68 286.48,624.41 C293.58,631.37 302.63,636.37 312.04,638.51 C320.45,640.42 337.97,639.75 347.50,637.15 ZM 572.70 611.75 C576.78,609.41 582.87,605.47 586.22,603.00 C589.57,600.53 593.92,597.41 595.89,596.09 C597.86,594.76 600.07,593.07 600.81,592.33 C601.55,591.59 603.02,590.53 604.07,589.96 C608.72,587.48 610.46,577.63 606.83,574.35 C605.87,573.48 603.12,572.54 600.72,572.27 C595.76,571.71 591.71,573.42 583.22,579.65 C580.33,581.77 576.07,584.71 573.74,586.18 C565.79,591.21 555.83,600.16 554.42,603.54 C552.81,607.40 553.49,612.89 555.81,614.75 C558.97,617.27 564.91,616.21 572.70,611.75 ZM 363.10 585.50 C364.20,583.03 365.76,581.00 366.58,581.00 C368.97,581.00 380.38,568.99 383.87,562.81 C388.45,554.69 389.93,547.89 389.92,535.09 C389.91,525.01 389.67,523.54 387.21,518.80 C384.11,512.82 377.70,505.41 373.96,503.48 C372.55,502.75 367.38,501.94 362.45,501.67 C351.54,501.09 343.10,503.41 337.71,508.49 C335.81,510.29 333.63,512.15 332.87,512.63 C331.16,513.72 325.75,520.67 324.04,524.00 C323.33,525.38 321.84,527.50 320.72,528.73 C316.51,533.35 317.60,558.62 322.52,570.40 C325.76,578.15 337.64,585.32 349.15,586.47 C352.81,586.84 356.64,587.77 357.65,588.54 C360.45,590.65 360.95,590.37 363.10,585.50 ZM 553.75 578.25 C566.60,569.52 576.33,563.13 578.00,562.33 C578.83,561.93 582.15,559.58 585.40,557.12 L 591.29 552.64 L 590.70 538.16 C590.02,521.36 589.29,519.64 583.75,521.87 C576.08,524.94 570.14,526.38 564.85,526.44 C557.96,526.51 555.53,524.69 554.55,518.70 C553.58,512.80 551.96,489.05 551.42,472.79 C550.96,459.09 550.96,459.07 553.42,457.46 C554.78,456.57 558.28,455.48 561.19,455.03 C571.28,453.48 584.30,450.13 585.71,448.71 C586.92,447.51 586.95,445.13 585.95,432.90 C585.30,424.98 584.55,413.91 584.29,408.30 C583.76,396.77 582.84,395.03 578.25,396.84 C576.74,397.43 571.90,398.64 567.50,399.51 C563.10,400.39 557.12,401.79 554.20,402.64 C547.94,404.45 545.76,403.45 546.61,399.16 C547.61,394.12 545.16,361.73 543.67,360.24 C542.49,359.07 541.45,359.10 536.68,360.49 C530.81,362.20 525.98,365.30 527.23,366.56 C527.64,366.97 530.11,367.84 532.73,368.50 C538.71,370.01 539.60,371.67 540.41,382.85 C541.43,396.94 543.21,406.88 545.00,408.50 C546.38,409.75 547.98,409.82 555.07,408.94 C559.82,408.35 564.92,407.05 566.75,405.98 C568.54,404.93 571.01,403.93 572.25,403.76 C573.49,403.59 575.06,403.10 575.75,402.67 C578.02,401.25 579.00,403.04 579.00,408.59 C579.00,411.92 578.37,415.02 577.40,416.51 C575.92,418.76 575.96,419.42 577.92,425.48 C579.08,429.08 580.32,434.76 580.67,438.11 C581.39,444.97 580.71,445.96 575.22,445.98 C573.41,445.99 570.32,446.68 568.33,447.50 C564.62,449.06 562.35,449.66 555.50,450.90 C549.87,451.93 547.13,453.65 546.38,456.63 C546.02,458.04 546.21,472.78 546.79,489.38 C547.96,523.07 548.58,526.34 554.47,529.98 C556.30,531.11 559.44,531.99 561.62,531.98 C565.78,531.96 579.42,529.67 582.17,528.54 C584.92,527.40 586.11,531.22 585.79,540.15 C585.58,546.18 585.11,548.48 584.00,549.03 C583.17,549.43 580.36,550.75 577.75,551.95 C574.72,553.35 573.00,554.78 573.00,555.90 C573.00,560.22 556.87,569.83 552.25,568.26 C551.56,568.03 550.70,568.66 550.33,569.67 C549.96,570.68 547.86,573.19 545.66,575.25 C542.06,578.63 541.13,579.00 536.24,579.00 C527.70,579.00 520.64,576.45 514.20,571.05 C504.33,562.76 503.93,562.09 498.80,545.13 C497.17,539.73 496.44,527.34 497.10,516.00 C497.58,507.64 497.38,504.79 496.14,502.04 C494.96,499.44 494.57,495.05 494.54,484.33 C494.49,466.64 494.16,466.06 485.08,467.75 C481.79,468.36 477.52,469.61 475.60,470.52 C473.67,471.43 471.63,471.89 471.05,471.53 C470.47,471.17 470.00,467.55 470.00,463.41 C470.00,457.48 469.67,455.81 468.40,455.32 C467.52,454.99 466.37,455.34 465.84,456.10 C464.63,457.85 465.63,475.03 467.02,476.42 C467.70,477.10 470.55,476.86 475.77,475.66 C480.02,474.68 484.84,473.79 486.48,473.69 C489.31,473.51 489.49,473.74 490.25,478.50 C490.68,481.25 490.84,488.90 490.59,495.50 C490.13,507.82 491.28,528.63 492.92,537.50 C493.43,540.25 494.36,545.42 494.99,549.00 C496.55,557.87 499.79,564.42 505.99,571.28 C514.02,580.17 522.81,583.76 536.89,583.91 L 545.28 584.00 L 553.75 578.25 ZM 267.42 565.76 C267.78,563.97 268.23,558.22 268.42,553.00 C268.62,547.78 269.22,541.38 269.75,538.78 C270.29,536.19 270.53,533.86 270.28,533.61 C270.03,533.37 270.82,530.44 272.04,527.12 C274.19,521.22 274.17,518.00 271.98,518.00 C267.49,518.00 262.27,550.96 264.45,565.51 C265.21,570.58 266.44,570.68 267.42,565.76 ZM 647.38 560.62 C651.78,558.78 664.76,549.73 676.57,540.28 C680.16,537.40 684.41,534.28 686.02,533.33 C689.03,531.55 691.00,527.56 691.00,523.25 C691.00,520.07 684.98,514.00 681.83,514.00 C678.49,514.00 669.30,519.66 653.81,531.27 C634.57,545.68 633.00,547.33 633.00,553.13 C633.00,557.04 633.45,558.21 635.63,559.93 C638.70,562.34 642.70,562.57 647.38,560.62 ZM 625.09 528.97 C626.42,527.85 632.33,523.77 638.24,519.90 C644.15,516.03 650.23,511.64 651.74,510.14 C653.26,508.64 656.30,506.34 658.50,505.03 C660.70,503.71 665.99,499.72 670.25,496.16 L 678.00 489.69 L 678.00 472.88 L 678.00 456.08 L 681.57 448.55 C683.81,443.83 686.51,439.90 688.81,438.01 C693.41,434.22 705.38,428.21 710.00,427.38 C714.41,426.58 730.22,422.11 730.85,421.49 C731.10,421.23 730.78,411.45 730.13,399.76 C727.84,358.52 728.00,360.07 725.88,358.94 C722.13,356.93 705.58,364.52 695.27,372.99 C684.28,382.01 682.55,383.77 678.78,389.74 C676.60,393.18 674.41,396.00 673.91,396.00 C673.41,396.00 673.00,392.43 673.00,388.07 C673.00,379.33 672.02,375.61 669.48,374.63 C667.75,373.97 648.64,379.18 643.80,381.63 C642.31,382.38 639.84,382.99 638.30,382.98 C634.62,382.96 617.20,386.84 614.00,388.40 C611.52,389.60 611.50,389.69 611.68,402.05 C611.79,408.90 612.37,423.27 612.99,434.00 C613.61,444.73 614.27,456.88 614.46,461.00 C614.92,471.13 615.80,484.21 616.49,491.50 C616.81,494.80 617.21,502.02 617.39,507.54 C617.56,513.06 618.20,518.51 618.82,519.66 C619.63,521.18 619.63,522.52 618.80,524.72 C616.60,530.54 620.28,533.03 625.09,528.97 ZM 774.37 527.11 C779.80,525.94 786.33,524.33 788.87,523.53 C791.42,522.72 797.33,521.11 802.00,519.94 C806.67,518.78 812.30,517.37 814.50,516.81 C820.79,515.21 821.13,514.62 820.47,506.60 C819.59,495.90 818.21,465.94 817.57,443.82 C817.26,432.99 816.53,422.90 815.96,421.39 C815.39,419.89 815.20,417.36 815.55,415.79 C816.20,412.81 814.74,410.00 812.53,410.00 C810.75,410.00 795.50,422.49 793.00,426.00 C791.82,427.65 790.33,429.00 789.68,429.00 C787.30,429.00 772.41,440.77 755.53,456.00 C751.56,459.58 746.40,463.62 744.06,465.00 C731.71,472.24 714.13,485.81 711.66,490.00 C708.48,495.39 711.57,502.45 717.60,503.59 C722.06,504.42 726.32,502.55 733.41,496.64 C736.21,494.31 741.06,490.68 744.20,488.57 C747.33,486.46 750.90,483.67 752.12,482.37 C755.50,478.77 756.95,479.27 755.96,483.69 C755.50,485.73 755.31,487.70 755.55,488.08 C755.78,488.45 756.17,494.10 756.41,500.63 C757.01,516.98 758.08,527.25 759.33,528.83 C759.90,529.56 761.31,529.95 762.44,529.69 C763.57,529.43 768.94,528.27 774.37,527.11 ZM 281.38 508.06 C283.92,505.07 286.00,502.04 286.00,501.33 C286.00,500.62 287.07,499.77 288.38,499.44 C290.41,498.93 290.83,498.08 291.25,493.75 C291.70,489.10 292.24,488.18 297.41,483.29 C300.52,480.34 302.81,477.50 302.48,476.97 C302.15,476.43 302.70,475.99 303.69,475.97 C304.69,475.95 307.75,474.83 310.50,473.48 C313.59,471.96 317.25,471.01 320.10,471.01 C323.41,471.00 325.19,470.44 326.50,469.00 C327.50,467.90 329.50,467.00 330.95,467.00 C333.92,467.00 335.99,465.38 336.02,463.05 C336.03,462.20 337.48,460.49 339.25,459.25 L 342.47 457.00 L 338.99 456.84 C332.46,456.55 330.50,457.11 319.44,462.41 C312.39,465.78 307.59,468.75 306.20,470.60 C302.12,476.03 298.28,479.47 295.22,480.43 C293.97,480.83 292.22,482.25 291.34,483.60 C290.46,484.95 287.34,488.56 284.42,491.63 C280.74,495.49 278.15,499.50 276.01,504.63 C271.37,515.77 273.61,517.20 281.38,508.06 ZM 870.14 502.60 C874.19,501.28 879.53,499.92 882.00,499.57 C884.47,499.23 890.33,497.88 895.00,496.58 C899.67,495.29 906.14,493.64 909.37,492.92 C919.07,490.77 919.00,490.95 917.45,474.00 C915.51,452.88 914.51,422.00 915.77,422.00 C916.34,422.00 919.43,425.36 922.65,429.48 C925.87,433.59 929.29,437.22 930.25,437.54 C931.21,437.87 934.11,441.14 936.70,444.82 C939.28,448.49 943.90,454.22 946.95,457.55 C950.00,460.87 954.52,466.27 957.00,469.55 C959.47,472.82 961.95,475.83 962.50,476.23 C964.68,477.83 972.24,476.82 987.52,472.88 C996.31,470.61 1005.97,468.19 1009.00,467.49 C1012.03,466.80 1017.18,465.50 1020.46,464.61 C1023.74,463.73 1027.62,463.00 1029.09,463.00 C1032.28,463.00 1034.39,460.79 1033.59,458.27 C1033.27,457.26 1027.12,450.38 1019.92,442.97 C1007.82,430.51 1001.10,423.56 974.75,396.26 C969.39,390.71 965.00,385.73 965.00,385.20 C965.00,383.82 972.42,371.43 985.17,351.50 C987.63,347.65 991.83,340.67 994.49,336.00 C997.15,331.33 1000.11,326.60 1001.07,325.50 C1002.02,324.40 1004.33,320.80 1006.20,317.50 C1011.37,308.37 1013.05,305.54 1018.78,296.29 C1023.95,287.96 1024.83,284.00 1021.51,284.00 C1019.62,284.00 1008.91,286.75 1000.00,289.52 C995.88,290.81 987.10,293.07 980.50,294.55 C973.90,296.03 968.07,297.63 967.55,298.12 C967.03,298.60 964.87,299.00 962.75,299.00 C954.32,299.00 950.48,302.93 941.26,321.00 C939.15,325.12 935.54,331.73 933.22,335.67 C930.90,339.62 929.00,343.30 929.00,343.85 C929.00,344.40 927.97,346.12 926.72,347.67 C924.41,350.53 922.07,355.02 920.03,360.50 C918.74,363.96 913.15,370.49 912.25,369.58 C911.46,368.79 909.70,347.98 909.88,341.52 C910.00,336.92 910.42,336.12 915.41,331.02 C923.19,323.06 927.00,314.91 927.00,306.22 C927.00,300.48 926.60,298.84 924.47,295.95 C921.14,291.44 917.97,289.89 911.99,289.85 C906.46,289.80 905.35,288.38 906.38,282.66 C906.92,279.63 905.71,257.16 904.21,242.50 L 903.50 235.50 L 900.00 235.61 C896.40,235.73 871.12,241.77 862.85,244.48 C860.30,245.32 855.46,246.30 852.10,246.65 C842.78,247.62 842.79,247.60 842.42,262.58 C842.24,269.69 842.55,277.08 843.11,279.00 C844.53,283.93 842.95,301.61 841.12,301.21 C840.38,301.06 836.22,300.45 831.86,299.86 C824.22,298.83 823.74,298.89 818.43,301.49 C815.40,302.97 812.22,305.27 811.35,306.59 C808.75,310.55 808.09,309.32 810.37,304.75 C812.78,299.91 813.91,286.20 812.19,282.64 C811.62,281.46 810.88,279.23 810.54,277.68 C809.67,273.67 806.01,268.44 802.71,266.49 C798.23,263.84 785.21,262.14 777.90,263.25 C770.65,264.34 761.38,268.42 759.91,271.16 C759.36,272.20 758.52,272.82 758.06,272.54 C756.47,271.55 749.50,279.58 747.76,284.39 C745.99,289.29 746.27,292.13 748.31,290.09 C748.91,289.49 750.13,289.00 751.01,289.00 C751.90,289.00 753.78,287.76 755.20,286.25 C757.69,283.59 758.12,282.64 759.43,276.75 C759.77,275.22 760.71,274.00 761.56,274.00 C762.40,274.00 764.95,273.05 767.23,271.88 C769.51,270.72 773.58,269.65 776.27,269.50 C778.96,269.36 781.67,268.73 782.28,268.12 C785.02,265.38 795.60,268.28 794.38,271.45 C793.48,273.80 797.62,276.65 801.19,276.14 C801.57,276.08 803.26,277.71 804.94,279.75 C807.28,282.59 808.00,284.44 808.00,287.68 C808.00,301.31 800.76,315.51 792.86,317.36 C790.78,317.85 790.12,317.57 789.71,315.99 C788.63,311.88 784.90,314.12 784.61,319.05 C784.47,321.45 778.59,325.80 774.42,326.58 C769.22,327.56 760.46,325.26 757.29,322.09 C749.80,314.61 747.28,310.35 746.46,303.84 C745.48,296.07 743.76,297.38 743.19,306.32 C742.85,311.76 743.17,313.27 745.74,318.03 C747.46,321.24 750.35,324.68 752.71,326.35 C757.56,329.78 767.85,332.19 772.25,330.93 C773.92,330.45 775.67,330.29 776.13,330.58 C777.18,331.23 788.43,328.22 792.44,326.22 C794.06,325.41 797.77,322.49 800.69,319.73 L 806.00 314.71 L 806.00 317.75 C806.00,320.40 807.10,321.62 814.44,327.15 C819.08,330.64 826.58,335.52 831.11,338.00 C842.54,344.24 842.68,344.41 839.34,348.86 C837.84,350.86 836.13,352.83 835.55,353.23 C834.97,353.64 830.22,353.87 825.00,353.75 C819.78,353.62 814.83,353.74 814.00,354.01 C812.80,354.40 812.40,353.16 812.00,347.71 C811.32,338.44 810.65,338.12 799.00,341.47 C792.60,343.31 783.26,345.69 778.00,346.82 C775.53,347.36 771.03,348.46 768.00,349.28 C764.97,350.10 760.33,351.08 757.68,351.46 C751.09,352.40 748.90,354.75 749.52,360.23 C749.89,363.48 751.71,413.93 751.87,425.41 C751.90,427.33 753.58,428.96 755.56,428.98 C756.72,429.00 767.17,421.06 782.53,408.50 C793.07,399.88 797.70,396.17 803.68,391.55 C807.94,388.26 811.71,384.38 812.26,382.71 C813.03,380.40 818.86,384.04 820.01,387.54 C820.69,389.59 822.42,391.64 824.52,392.88 C826.98,394.33 828.75,396.69 830.87,401.37 C834.35,409.06 837.65,411.30 844.83,410.85 L 849.48 410.57 L 850.15 415.03 C850.98,420.67 852.65,425.00 853.98,425.00 C855.45,425.00 855.23,410.02 853.71,407.00 C853.02,405.62 851.45,404.36 850.22,404.18 C847.58,403.80 847.40,402.75 849.65,400.87 C852.89,398.19 853.83,393.97 852.69,387.28 C851.47,380.15 851.35,380.38 861.29,371.75 L 867.08 366.73 L 870.66 368.61 C874.71,370.74 878.00,376.99 878.00,382.52 C878.00,384.37 878.46,386.17 879.03,386.52 C879.62,386.88 879.79,388.58 879.44,390.49 C878.50,395.50 879.68,398.30 882.45,397.60 C885.05,396.95 886.99,398.79 888.96,403.76 C891.63,410.51 897.76,408.76 903.04,399.73 C905.78,395.05 906.03,393.93 905.48,389.00 C904.41,379.50 904.31,374.93 905.17,374.40 C905.63,374.11 906.01,374.70 906.03,375.69 C906.08,378.33 908.42,381.00 910.69,381.00 C913.31,381.00 916.30,377.58 919.00,371.50 C920.22,368.75 921.79,365.83 922.48,365.00 C924.27,362.87 928.47,355.27 935.13,342.12 C938.30,335.87 941.75,329.79 942.80,328.62 C944.85,326.35 947.36,322.05 949.00,318.00 C949.56,316.62 951.29,313.25 952.85,310.50 C956.46,304.11 959.65,302.92 975.33,302.11 C984.39,301.64 987.44,301.13 988.33,299.93 C990.42,297.13 996.36,294.88 1003.23,294.29 C1009.06,293.79 1010.04,293.95 1010.63,295.49 C1011.54,297.86 1008.52,303.39 1003.12,309.24 C1000.20,312.40 997.97,316.20 996.42,320.62 C995.15,324.28 993.15,328.28 991.98,329.52 C990.81,330.77 989.10,333.14 988.18,334.79 C987.25,336.44 985.15,339.59 983.50,341.79 C979.58,347.03 976.99,351.53 974.91,356.71 C973.98,359.03 971.60,362.82 969.61,365.14 C967.63,367.46 966.00,370.15 966.00,371.12 C966.00,372.09 965.15,373.48 964.11,374.21 C961.99,375.69 959.00,382.17 959.00,385.28 C959.00,386.53 962.43,390.67 967.83,395.94 C972.68,400.68 977.08,405.33 977.61,406.27 C978.14,407.22 985.98,415.70 995.04,425.12 C1004.09,434.53 1011.82,443.08 1012.21,444.10 C1013.00,446.16 1021.89,455.00 1023.18,455.00 C1023.63,455.00 1024.00,455.67 1024.00,456.50 C1024.00,457.33 1023.81,458.00 1023.57,458.00 C1019.01,458.00 1006.70,460.65 1004.24,462.17 C1002.45,463.27 996.83,465.04 991.74,466.09 C986.66,467.15 979.83,468.91 976.56,470.01 C967.54,473.03 966.17,472.74 960.91,466.74 C958.39,463.86 955.08,459.51 953.55,457.08 C952.02,454.65 947.46,449.25 943.43,445.08 C935.77,437.16 932.14,432.34 928.56,425.31 C926.41,421.08 913.75,410.58 911.65,411.28 C909.84,411.89 909.14,414.36 907.81,425.00 C906.60,434.66 906.32,435.53 904.25,435.82 C902.89,436.01 902.03,436.81 902.08,437.82 C902.20,440.35 906.47,447.53 907.71,447.29 C910.16,446.80 911.31,453.37 911.40,468.49 C911.46,476.93 911.15,484.18 910.71,484.62 C910.28,485.05 908.43,485.30 906.61,485.18 C904.61,485.05 902.77,485.57 902.02,486.48 C901.32,487.32 899.65,488.00 898.31,488.00 C896.96,488.00 893.98,489.07 891.68,490.37 C888.12,492.39 874.91,496.17 863.31,498.49 C860.31,499.10 860.08,498.94 859.53,495.82 C858.71,491.21 856.86,458.81 856.64,445.50 C856.46,434.21 855.94,432.00 853.44,432.00 C851.67,432.00 851.58,443.22 853.18,461.50 C853.76,468.10 854.30,480.02 854.37,488.00 C854.44,495.98 854.86,503.06 855.31,503.75 C856.55,505.67 862.02,505.24 870.14,502.60 ZM 395.00 477.44 C395.00,476.65 394.33,476.00 393.50,476.00 C391.99,476.00 391.44,478.11 392.64,479.31 C393.57,480.24 395.00,479.11 395.00,477.44 ZM 386.32 467.00 C386.82,465.08 387.28,460.85 387.36,457.62 C387.46,453.50 387.95,451.51 389.00,450.98 C393.46,448.75 396.27,448.10 403.90,447.54 C410.30,447.07 413.02,446.40 415.37,444.71 C417.07,443.50 419.32,442.05 420.37,441.50 C421.42,440.95 422.33,440.05 422.39,439.50 C422.59,437.72 417.65,437.87 409.48,439.87 C388.82,444.94 384.54,446.14 383.25,447.21 C382.23,448.05 381.94,450.34 382.18,455.69 C382.53,463.78 381.89,464.48 377.15,461.11 C370.24,456.20 362.77,454.60 351.66,455.65 C343.90,456.38 343.72,456.45 348.00,457.08 C357.42,458.48 361.88,459.78 365.11,462.08 C366.95,463.39 369.55,464.61 370.88,464.78 C373.99,465.20 378.26,467.41 379.99,469.48 C382.21,472.16 385.31,470.95 386.32,467.00 ZM 413.42 455.39 C414.29,455.06 415.00,454.16 415.00,453.39 C415.00,452.63 415.65,452.00 416.44,452.00 C419.04,452.00 419.38,449.73 417.05,447.84 C414.50,445.78 412.60,446.35 413.28,448.97 C413.88,451.25 412.30,454.00 410.39,454.00 C409.56,454.00 409.16,454.45 409.50,455.00 C410.21,456.15 411.19,456.25 413.42,455.39 ZM 467.96 445.25 C467.95,442.64 467.28,439.38 466.48,438.00 C465.11,435.64 465.03,435.86 465.15,442.00 C465.27,448.86 465.54,450.00 467.06,450.00 C467.58,450.00 467.98,447.86 467.96,445.25 ZM 468.31 430.42 C470.24,428.18 471.62,427.75 478.75,427.14 C487.29,426.40 489.89,424.92 489.97,420.75 C490.01,418.54 490.17,418.53 480.55,421.41 C476.12,422.74 471.03,424.12 469.24,424.49 C465.56,425.25 463.83,427.65 464.67,430.84 C465.38,433.58 465.62,433.55 468.31,430.42 ZM 490.99 392.00 C490.37,387.33 489.73,382.49 489.57,381.26 C489.41,380.02 489.80,378.58 490.45,378.04 C491.95,376.80 498.12,376.56 504.61,377.51 C509.57,378.22 509.74,378.17 510.40,375.56 C510.87,373.69 512.21,372.41 514.79,371.36 C522.65,368.15 525.95,366.47 525.97,365.64 C525.99,365.17 525.23,365.08 524.28,365.45 C523.34,365.81 519.28,366.52 515.28,367.03 C511.27,367.54 504.28,368.91 499.74,370.08 C495.21,371.26 490.47,372.45 489.22,372.73 C485.37,373.60 484.80,376.22 485.33,390.58 C485.68,399.99 486.36,405.37 487.60,408.62 L 489.37 413.26 L 490.74 406.88 C491.83,401.80 491.88,398.77 490.99,392.00 ZM 874.12 405.75 C874.18,405.06 874.15,403.69 874.04,402.69 C873.94,401.70 874.37,400.25 875.01,399.49 C876.41,397.80 875.39,394.00 873.54,394.00 C871.65,394.00 870.69,396.80 870.79,402.00 C870.83,404.48 870.90,406.61 870.94,406.75 C871.17,407.66 874.02,406.76 874.12,405.75 ZM 747.00 293.80 C747.00,292.18 746.70,291.90 745.89,292.71 C745.28,293.32 745.08,294.31 745.45,294.91 C746.48,296.59 747.00,296.21 747.00,293.80 ZM 216.44 732.12 C213.66,731.77 210.12,730.65 208.57,729.64 L 205.75 727.79 L 208.30 725.25 C210.73,722.81 211.32,722.71 221.89,722.80 C227.97,722.86 233.83,723.37 234.90,723.95 C236.42,724.76 237.26,724.60 238.61,723.25 C240.82,721.03 257.18,720.07 259.53,722.02 C261.84,723.94 261.27,725.86 257.75,728.01 C255.17,729.58 252.71,729.99 245.82,730.00 C241.04,730.00 236.09,730.39 234.82,730.87 C231.25,732.20 222.05,732.83 216.44,732.12 ZM 308.70 718.98 C304.04,718.14 302.60,716.83 303.45,714.16 C304.30,711.49 312.23,709.67 320.97,710.15 C326.92,710.47 327.68,710.28 330.24,707.76 C331.78,706.26 334.27,704.78 335.77,704.47 C337.27,704.16 340.08,703.50 342.00,703.00 C347.37,701.61 353.71,702.80 354.37,705.32 C354.67,706.46 354.45,707.96 353.88,708.64 C352.30,710.54 343.16,712.26 336.73,711.86 C333.58,711.66 331.00,711.84 331.00,712.26 C331.00,713.65 324.55,716.99 321.87,717.00 C320.43,717.00 317.73,717.60 315.87,718.33 C313.76,719.17 311.08,719.41 308.70,718.98 ZM 559.57 608.43 C558.71,607.56 558.00,606.44 558.00,605.93 C558.00,604.66 561.75,601.00 563.05,601.00 C564.83,601.00 575.26,593.97 580.00,589.57 C585.31,584.64 595.09,579.44 597.39,580.32 C603.28,582.58 592.00,594.29 582.58,595.68 C580.76,595.95 578.68,597.24 577.51,598.82 C573.52,604.20 566.08,610.00 563.16,610.00 C562.05,610.00 560.44,609.29 559.57,608.43 ZM 340.00 579.35 C335.90,577.67 329.89,571.48 327.37,566.32 C321.20,553.71 323.79,533.29 333.16,520.64 C339.16,512.54 351.68,506.00 361.19,506.00 C370.96,506.00 381.07,515.54 385.08,528.53 C388.74,540.38 386.25,551.61 377.10,564.50 C372.31,571.25 370.41,573.04 364.96,575.95 C359.28,578.98 357.48,579.43 350.00,579.68 C345.33,579.83 340.83,579.68 340.00,579.35 ZM 642.21 554.13 C641.19,553.50 640.66,551.55 640.88,549.28 C641.10,547.07 651.25,541.00 654.74,541.00 C656.70,541.00 657.99,541.50 657.96,542.25 C657.82,547.25 645.77,556.34 642.21,554.13 ZM 663.98 535.95 C663.33,534.39 663.13,532.61 663.51,531.98 C664.96,529.64 674.72,524.18 678.05,523.85 C681.14,523.54 681.53,523.78 681.81,526.13 C682.06,528.37 681.15,529.44 675.75,533.22 C667.27,539.14 665.47,539.56 663.98,535.95 ZM 622.58 519.75 C622.32,518.51 621.86,510.52 621.55,502.00 C621.24,493.48 620.56,478.85 620.04,469.50 C618.33,438.86 618.21,434.55 618.91,430.00 C619.29,427.52 619.08,421.23 618.44,416.00 C615.69,393.65 615.68,394.22 618.97,392.52 C620.58,391.68 624.18,391.00 626.97,391.00 C630.56,391.00 633.13,390.32 635.77,388.65 C640.37,385.76 644.30,384.55 654.17,382.97 C661.40,381.81 662.00,381.86 664.77,383.84 C667.42,385.72 667.76,386.62 668.31,393.13 C668.67,397.39 669.51,400.94 670.37,401.80 C672.89,404.32 676.54,402.47 679.92,396.98 C681.62,394.21 684.02,391.56 685.26,391.08 C687.92,390.06 691.65,385.23 692.55,381.64 C693.48,377.96 695.51,376.53 709.00,370.01 C712.58,368.29 716.28,366.45 717.24,365.94 C718.19,365.42 719.88,365.00 720.99,365.00 C722.70,365.00 723.02,365.70 723.14,369.75 C723.22,372.36 723.39,376.30 723.53,378.50 C723.67,380.70 724.09,390.19 724.45,399.58 C725.20,419.20 725.51,418.41 716.39,420.11 C713.15,420.71 709.15,421.78 707.50,422.49 C705.85,423.19 702.03,424.32 699.00,425.01 C692.22,426.54 682.78,430.84 683.53,432.05 C684.23,433.18 681.45,438.64 679.64,439.70 C677.76,440.80 675.01,446.41 674.97,449.20 C674.93,452.13 672.42,455.69 671.72,453.80 C671.38,452.91 670.98,453.11 670.44,454.44 C669.93,455.68 670.07,456.52 670.83,456.78 C671.48,456.99 671.79,457.54 671.51,457.98 C671.24,458.43 671.64,464.80 672.42,472.15 C673.68,484.13 673.66,485.68 672.25,487.25 C671.39,488.21 669.53,489.00 668.11,489.00 C666.22,489.00 663.77,490.84 659.01,495.81 C652.09,503.04 645.11,508.28 641.00,509.34 C639.62,509.69 635.59,512.69 632.03,515.99 C628.47,519.30 624.99,522.00 624.30,522.00 C623.61,522.00 622.83,520.99 622.58,519.75 ZM 763.41 513.90 C764.57,494.14 764.49,492.99 761.21,484.07 C759.50,479.43 757.42,475.25 756.58,474.79 C754.25,473.48 745.93,478.18 740.35,483.96 C737.68,486.73 735.01,488.99 734.40,488.99 C733.80,489.00 732.45,489.96 731.40,491.14 C729.24,493.57 722.43,496.95 719.62,496.98 C717.97,497.00 717.83,496.48 718.41,492.75 C719.15,488.08 721.16,485.94 727.55,483.07 C732.09,481.02 739.43,475.27 745.64,468.90 C750.75,463.65 755.76,459.99 763.29,456.00 C766.47,454.31 771.65,451.15 774.79,448.97 C778.06,446.70 781.67,445.00 783.25,445.00 C785.65,445.00 786.00,444.61 786.00,441.92 C786.00,439.69 787.03,437.82 789.75,435.12 C795.20,429.72 807.04,420.75 808.90,420.61 C810.95,420.47 811.46,426.43 813.11,469.72 C814.88,516.46 815.14,511.33 811.00,512.11 C809.08,512.47 804.35,513.53 800.50,514.46 C792.30,516.45 783.71,517.74 782.12,517.21 C781.47,516.99 781.26,515.82 781.61,514.43 C782.04,512.72 781.73,511.83 780.56,511.38 C778.44,510.57 776.07,513.61 776.03,517.21 C775.99,520.44 773.89,521.78 767.47,522.66 L 762.85 523.29 L 763.41 513.90 ZM 757.34 417.45 C757.02,416.60 756.98,413.86 757.26,411.36 C757.54,408.86 757.22,402.69 756.54,397.66 C755.85,392.62 755.49,385.58 755.73,382.00 C755.97,378.42 755.70,371.90 755.15,367.51 C753.75,356.48 754.55,355.61 765.50,356.28 C769.90,356.56 774.24,357.08 775.15,357.46 C776.07,357.84 777.26,357.56 777.85,356.82 C783.46,349.84 784.35,349.32 793.70,347.52 C798.76,346.55 803.53,345.99 804.30,346.28 C805.18,346.62 805.94,349.13 806.35,353.06 C807.06,359.83 808.21,362.00 811.12,362.00 C813.10,362.00 813.71,364.44 812.00,365.50 C810.48,366.44 810.81,370.78 812.61,373.54 C814.16,375.89 814.13,376.00 812.09,376.00 C810.76,376.00 809.61,376.90 809.05,378.36 C807.88,381.44 801.12,387.00 798.52,387.02 C795.69,387.04 794.59,388.00 793.06,391.79 C792.32,393.60 790.77,395.57 789.61,396.17 C786.87,397.59 774.05,406.99 771.77,409.25 C770.00,411.00 768.44,411.38 764.32,411.05 C762.31,410.89 759.77,413.70 760.10,415.71 C760.65,418.95 758.45,420.34 757.34,417.45 ZM 839.04 403.81 C836.40,400.98 836.37,399.37 839.00,402.00 C840.10,403.10 841.87,404.00 842.94,404.00 C844.01,404.00 845.16,404.45 845.50,405.00 C846.73,407.00 841.03,405.95 839.04,403.81 ZM 891.66 398.25 C890.89,396.74 889.70,393.75 889.01,391.62 C888.32,389.48 885.75,383.18 883.29,377.62 C880.83,372.05 878.16,365.34 877.36,362.70 C876.34,359.35 875.13,357.56 873.36,356.76 C871.04,355.70 870.48,355.97 866.56,360.05 C864.21,362.50 859.32,366.52 855.70,369.00 C847.92,374.32 846.80,376.20 848.23,381.59 C849.44,386.17 847.77,396.12 845.46,398.04 C843.30,399.83 841.27,398.52 840.47,394.82 C839.51,390.36 836.43,384.43 834.24,382.82 C833.26,382.09 832.02,380.50 831.48,379.28 C830.93,378.04 827.64,375.62 824.00,373.78 C817.17,370.33 815.42,367.56 818.48,365.02 C819.76,363.96 821.30,363.94 826.78,364.96 C841.53,367.69 841.23,367.75 845.50,361.01 C846.72,359.08 850.48,354.45 853.86,350.73 C859.90,344.07 860.70,342.55 859.23,340.44 C858.43,339.28 846.72,332.55 840.71,329.80 C838.62,328.84 836.26,327.40 835.46,326.60 C834.65,325.80 830.85,323.44 827.00,321.36 C819.71,317.42 818.24,315.01 821.93,313.04 C825.07,311.36 835.38,311.81 840.17,313.83 C842.55,314.84 847.42,316.21 851.00,316.88 C861.98,318.92 872.35,321.12 875.57,322.08 C877.26,322.59 879.36,323.00 880.23,323.00 C881.11,323.00 886.25,318.91 891.66,313.92 C905.36,301.27 911.17,298.55 914.44,303.22 C916.11,305.60 916.61,314.61 915.10,315.17 C914.61,315.35 909.68,319.70 904.15,324.84 C890.99,337.06 891.26,335.33 897.46,367.00 C898.16,370.58 899.22,374.70 899.81,376.17 C900.40,377.63 901.02,382.96 901.19,388.00 C901.48,396.62 901.36,397.29 899.14,399.09 C895.84,401.76 893.29,401.47 891.66,398.25 ZM 903.61 367.25 C900.03,355.41 899.01,339.86 901.56,336.22 C903.54,333.39 904.48,333.40 904.57,336.25 C904.61,337.49 905.01,345.36 905.45,353.75 C906.00,364.31 905.93,369.00 905.19,369.00 C904.61,369.00 903.90,368.21 903.61,367.25 ZM 848.60 344.41 C847.75,342.18 847.82,342.00 849.50,342.00 C850.33,342.00 851.00,342.65 851.00,343.44 C851.00,345.56 849.31,346.24 848.60,344.41 ZM 915.51 319.50 C916.59,314.56 916.75,314.30 918.92,313.73 C922.10,312.90 921.56,316.09 917.92,319.56 L 914.85 322.50 L 915.51 319.50 ZM 876.50 317.47 C875.95,317.33 872.05,316.45 867.83,315.51 C863.59,314.57 859.22,312.93 858.05,311.84 C856.81,310.67 854.04,309.69 851.30,309.43 C845.61,308.90 845.20,308.54 847.48,306.03 C849.10,304.24 849.17,303.15 848.27,295.02 C847.64,289.41 847.60,284.20 848.17,281.25 C848.67,278.64 848.80,274.45 848.47,271.95 C848.14,269.45 847.74,264.35 847.58,260.61 C847.35,255.11 847.60,253.72 848.90,253.30 C849.78,253.02 852.43,251.92 854.80,250.87 C858.45,249.23 859.71,249.11 863.24,250.06 C865.63,250.71 869.66,250.90 872.75,250.51 C877.11,249.97 878.27,249.41 878.99,247.52 C880.32,244.03 882.58,243.16 890.70,243.01 C891.91,242.99 893.17,242.53 893.51,241.98 C893.84,241.44 894.93,241.00 895.93,241.00 C898.37,241.00 898.84,244.19 900.00,268.41 C900.79,284.96 901.29,289.00 902.93,292.33 C904.96,296.43 904.87,298.00 902.60,298.00 C901.89,298.00 900.45,298.95 899.40,300.11 C898.36,301.26 895.92,303.03 894.00,304.02 C892.08,305.01 888.87,307.78 886.88,310.16 C883.24,314.52 878.36,317.96 876.50,317.47 Z" fill="rgb(254,254,254)"/>
</g>
</svg>